<?xml version="1.0" standalone="no"?>
<!DOCTYPE svg PUBLIC "-//W3C//DTD SVG 1.1//EN" "http://www.w3.org/Graphics/SVG/1.1/DTD/svg11.dtd" >
<!--
2013-9-30: Created.
-->
<svg>
<metadata>
Created by iconfont
</metadata>
<defs>

<font id="iconfont" horiz-adv-x="1024" >
  <font-face
    font-family="iconfont"
    font-weight="500"
    font-stretch="normal"
    units-per-em="1024"
    ascent="896"
    descent="-128"
  />
    <missing-glyph />
    
    <glyph glyph-name="x" unicode="x" horiz-adv-x="1001"
d="M281 543q-27 -1 -53 -1h-83q-18 0 -36.5 -6t-32.5 -18.5t-23 -32t-9 -45.5v-76h912v41q0 16 -0.5 30t-0.5 18q0 13 -5 29t-17 29.5t-31.5 22.5t-49.5 9h-133v-97h-438v97zM955 310v-52q0 -23 0.5 -52t0.5 -58t-10.5 -47.5t-26 -30t-33 -16t-31.5 -4.5q-14 -1 -29.5 -0.5
t-29.5 0.5h-32l-45 128h-439l-44 -128h-29h-34q-20 0 -45 1q-25 0 -41 9.5t-25.5 23t-13.5 29.5t-4 30v167h911zM163 247q-12 0 -21 -8.5t-9 -21.5t9 -21.5t21 -8.5q13 0 22 8.5t9 21.5t-9 21.5t-22 8.5zM316 123q-8 -26 -14 -48q-5 -19 -10.5 -37t-7.5 -25t-3 -15t1 -14.5
t9.5 -10.5t21.5 -4h37h67h81h80h64h36q23 0 34 12t2 38q-5 13 -9.5 30.5t-9.5 34.5q-5 19 -11 39h-368zM336 498v228q0 11 2.5 23t10 21.5t20.5 15.5t34 6h188q31 0 51.5 -14.5t20.5 -52.5v-227h-327z" />
    

    
    <glyph glyph-name="delete" unicode="&#58890;" d="M380.269 34.093c24.975 0 45.222 20.244 45.222 45.22v542.637c0 24.972-20.245 45.22-45.222 45.22-24.973 0-45.222-20.246-45.222-45.22v-542.637c0-24.975 20.249-45.22 45.222-45.22zM945.541 802.828h-384.385v45.22c0 24.974-20.245 45.22-45.222 45.22h-45.222c-24.973 0-45.222-20.244-45.222-45.22v-45.22h-384.382c-24.975 0-45.222-20.244-45.222-45.22 0-24.974 20.245-45.22 45.222-45.22h67.833v-723.515c0-49.95 40.494-90.439 90.443-90.439h587.881c49.952 0 90.443 40.49 90.443 90.439v723.515h67.833c24.975 0 45.222 20.244 45.222 45.22-0.001 24.975-20.246 45.22-45.222 45.22zM787.265 34.093c0-24.974-20.245-45.22-45.222-45.22h-497.438c-24.973 0-45.222 20.244-45.222 45.22v678.295h587.881v-678.295zM606.378 34.093c24.975 0 45.222 20.244 45.222 45.22v542.637c0 24.972-20.245 45.22-45.222 45.22-24.975 0-45.222-20.246-45.222-45.22v-542.637c0-24.975 20.246-45.22 45.222-45.22z"  horiz-adv-x="1000" />

    
    <glyph glyph-name="shopping-empty" unicode="&#58884;" d="M360.135 111.619q19.035 0 36.050-7.018t29.546-19.515 20.029-29.546 7.498-36.050-7.498-36.050-20.029-29.546-29.546-20.029-36.050-7.498q-20.029 0-37.044 7.498t-29.546 20.029-20.029 29.546-7.498 36.050 7.498 36.050 20.029 29.546 29.546 19.515 37.044 7.018zM776.717 109.601q19.035 0 36.563-7.018t30.057-19.515 20.029-29.546 7.498-36.050-7.498-36.050-20.029-29.546-30.057-20.029-36.563-7.498-36.050 7.498-29.546 20.029-20.029 29.546-7.498 36.050 7.498 36.050 20.029 29.546 29.546 19.515 36.050 7.018zM944.951 678.396q28.039 0 43.549-7.498t22.047-18.521 6.025-23.52-3.493-21.534-13.010-37.044-21.534-61.589-23.040-66.589-18.521-52.073q-13.010-40.055-32.558-55.566t-48.581-15.51h-525.726l14.035-90.142h505.699q48.066 0 48.066-41.049 0-20.029-9.516-35.056t-37.556-14.035h-524.733q-20.029 0-33.551 9.005t-22.528 23.52-14.516 31.533-8.523 32.044q-0.993 6.025-5.511 29.033t-11.023 57.584-14.516 77.102-16.022 85.623q-19.035 101.133-43.069 225.307h-75.114q-15.030 0-25.027 7.498t-16.535 18.042-9.005 22.528-2.499 22.047q0 20.029 13.522 33.039t36.563 12.017h101.133q20.029 0 32.044-6.025t19.035-15.030 10.031-18.521 4.999-16.535q2.019-8.012 4.005-22.528t4.005-29.546q3.013-18.042 6.025-38.069h684.958zM907.909 589.28l-626.892 2.018 35.056-181.246 523.74-0.993z"  horiz-adv-x="1024" />

    
    <glyph glyph-name="set" unicode="&#59191;" d="M976 486.4h-120.471c-7.096 23.832-16.578 46.634-28.212 68.104l85.188 85.188c18.745 18.744 18.745 49.138 0 67.881l-76.933 76.933c-18.747 18.745-49.139 18.745-67.885 0l-85.187-85.187c-21.471 11.633-44.271 21.118-68.1 28.211v120.47c0 26.509-21.491 48-48 48h-108.8c-26.509 0-48-21.491-48-48v-120.47c-23.832-7.095-46.631-16.578-68.103-28.211l-85.186 85.187c-18.746 18.745-49.138 18.745-67.885 0l-76.932-76.933c-18.746-18.744-18.746-49.138 0-67.881l85.187-85.188c-11.633-21.47-21.119-44.272-28.211-68.103h-120.47c-26.509 0-48-21.49-48-48v-108.801c0-26.51 21.491-48 48-48h120.47c7.095-23.833 16.578-46.633 28.211-68.102l-85.187-85.186c-18.745-18.746-18.745-49.139 0-67.886l76.932-76.933c18.746-18.745 49.139-18.745 67.883 0l85.186 85.186c21.471-11.633 44.272-21.116 68.104-28.211v-120.468c0-26.51 21.49-48 48-48h108.801c26.51 0 48 21.49 48 48v120.471c23.833 7.096 46.633 16.578 68.104 28.212l85.187-85.188c18.746-18.745 49.138-18.745 67.885 0l76.933 76.933c18.745 18.747 18.745 49.139 0 67.885l-85.192 85.187c11.633 21.471 21.116 44.271 28.211 68.1h120.472c26.51 0 48 21.491 48 48v108.8c0 26.509-21.49 48-48 48zM512 179.2c-113.108 0-204.8 91.689-204.8 204.8 0 113.108 91.691 204.8 204.8 204.8 113.109 0 204.8-91.692 204.8-204.8 0-113.109-91.691-204.8-204.8-204.8z"  horiz-adv-x="1024" />

    
    <glyph glyph-name="merchant" unicode="&#58880;" d="M1004.043 556.546l-80.558 206.666c-3.228-2.768-21.060 86.022-87.557 86.022h-649.438c-66.497 0-84.33-88.791-87.557-86.022l-80.558-206.666c-17.659-33.931-21.353-78.865-21.353-82.097 0-67.979 57.283-123.106 127.952-123.106 61.403 0 112.571 41.626 124.993 97.103 0.885 1.962 2.155 3.425 2.999 5.5l0.431 1.105 1.078-6.992c0.42 0.945 0.954 1.804 1.482 2.662 11.493-56.542 62.777-99.378 124.969-99.378 0.749 0 1.492 0.015 2.238 0.028 0.805-0.015 1.611-0.028 2.421-0.028 62.299 0 114.237 42.894 125.623 99.662 11.387-56.767 63.325-99.662 125.625-99.662 0.809 0 1.615 0.013 2.42 0.028 0.746-0.013 1.489-0.028 2.238-0.028 62.192 0 113.474 42.836 124.969 99.378 0.528-0.859 1.060-1.717 1.482-2.662l1.078 6.992 0.431-1.105c0.846-2.077 2.114-3.539 2.999-5.5 12.423-55.476 63.59-97.103 124.993-97.103 70.67 0 127.952 55.129 127.952 123.106 0.003 3.233-3.691 48.167-21.349 82.097zM868.355 55.268c0-10.925-5.311-20.236-13.077-26.583l-102.065 149.69h-489.431l-104.524-122.642v280.219h-78.787v-305.691c0-48.742 40.817-88.254 91.217-88.254h684.246c50.357 0 91.214 39.511 91.214 88.254v305.691h-78.789v-280.684z"  horiz-adv-x="1024" />

    
    <glyph glyph-name="org-struct" unicode="&#59007;" d="M148.967 407.907h340.7v-205.207c0-11.759 9.534-21.293 21.293-21.293v0c11.759 0 21.293 9.534 21.293 21.293v205.207h340.7v-226.494c0-11.759 9.534-21.293 21.293-21.293v0c11.759 0 21.293 9.534 21.293 21.293v234.032c0 19.356-15.691 35.049-35.049 35.049h-348.236v92.986c0 11.759-9.534 21.293-21.293 21.293v0c-11.759 0-21.293-9.534-21.293-21.293v-92.986h-348.24c-19.356 0-35.049-15.691-35.049-35.049v-234.032c0-11.759 9.534-21.293 21.293-21.293v0c11.759 0 21.293 9.534 21.293 21.293v226.494h0.001zM234.144 125.808h-212.935c-11.773 0-21.294-9.538-21.294-21.294v-206.45c0-11.749 9.522-21.293 21.294-21.293h212.935c11.748 0 21.293 9.542 21.293 21.293v206.45c0 11.756-9.543 21.294-21.293 21.294v0zM617.424 125.808h-212.929c-11.772 0-21.299-9.538-21.299-21.294v-206.45c0-11.749 9.529-21.293 21.299-21.293h212.93c11.749 0 21.299 9.542 21.299 21.293v206.45c-0.001 11.756-9.551 21.294-21.3 21.294v0zM1000.714 125.808h-212.938c-11.772 0-21.293-9.538-21.293-21.294v-206.45c0-11.749 9.526-21.293 21.293-21.293h212.938c11.747 0 21.293 9.542 21.293 21.293v206.45c-0.001 11.756-9.545 21.294-21.293 21.294v0zM340.609 599.546h340.702c11.748 0 21.293 9.533 21.293 21.294v254.939c0 11.772-9.543 21.303-21.293 21.303h-340.702c-11.765 0-21.293-9.533-21.293-21.303v-254.94c0-11.76 9.527-21.293 21.293-21.293v0zM340.609 599.546z"  horiz-adv-x="1024" />

    
    <glyph glyph-name="editor" unicode="&#58899;" d="M428.537 186.042c17.93-1.261 36.233 4.149 50.876 16.252l4.972 1.588-155.621 155.621-1.586-4.964c-12.11-14.646-17.523-32.959-16.259-50.894l-55.209-172.814 172.829 55.21zM991.972 816.194l-50.905 50.905c-28.112 28.112-73.69 28.112-101.802 0l-49.313-49.312 152.71-152.71 49.309 49.31c28.119 28.112 28.119 73.695 0 101.808zM890.165 612.577l-152.711 152.71-354.742-354.737 152.714-152.717 354.74 354.745zM871.951-48.192h-794.14v794.139h506.177v69.744h-503.93c-39.761 0-71.99-32.229-71.99-71.99v-791.892c0-39.761 32.229-71.99 71.99-71.99h791.892c39.761 0 71.99 32.229 71.99 71.99v503.932h-71.99v-503.931z"  horiz-adv-x="1024" />

    
    <glyph glyph-name="down" unicode="&#58887;" d="M872.649-72.106h-726.798c-80.271 0-145.356 65.063-145.356 145.355v181.701c0 20.065 16.281 36.333 36.332 36.333h72.691c20.065 0 36.332-16.269 36.332-36.333v-109.023c0-40.144 32.535-72.679 72.677-72.679h581.442c40.143 0 72.677 32.534 72.677 72.679v109.023c0 20.065 16.269 36.333 36.346 36.333h72.679c20.065 0 36.333-16.269 36.333-36.333v-181.702c-0.001-80.288-65.072-145.354-145.357-145.354v0zM213.833 640.842c14.701 14.699 38.554 14.699 53.255 0l169.495-169.497v365.895c0 20.065 16.271 36.35 36.333 36.35h72.676c20.068 0 36.348-16.285 36.348-36.35v-365.895l169.495 169.497c14.701 14.699 38.543 14.699 53.245 0l53.264-53.268c14.701-14.702 14.701-38.542 0-53.255l-300.137-300.14c-1.298-1.295-24.649-15.569-48.146-15.58-23.753-0.012-47.649 14.27-48.948 15.58l-300.149 300.14c-14.702 14.716-14.702 38.554 0 53.255l53.267 53.268z"  horiz-adv-x="1024" />

    
    <glyph glyph-name="user" unicode="&#58945;" d="M741.247 328.96h-463.119c-137.411 0-248.778-90.339-248.778-226.043 0-135.7 111.364-226.041 248.778-226.041h463.119c137.385 0 248.778 90.338 248.778 226.041s-111.393 226.043-248.778 226.043zM712.578-38.355h-405.779c-97.155 0-192.681 55.075-192.681 141.276 0 86.256 95.525 141.276 192.681 141.276h405.78c97.156 0 192.681-55.020 192.681-141.276-0.001-86.199-95.524-141.276-192.682-141.276zM499.506 385.471h20.363c146.049 0 244.115 113.847 244.115 254.295v19.59c0 140.446-98.066 234.704-244.115 234.704h-20.363c-146.050 0-244.115-94.259-244.115-234.704v-19.59c0-140.448 98.065-254.295 244.115-254.295zM340.158 654.060c0 94.257 63.905 155.237 162.66 155.237h13.742c98.753 0 162.661-60.981 162.661-155.237v-13.135c0-94.259-63.908-170.69-162.661-170.69h-13.742c-98.754 0-162.66 76.431-162.66 170.69v13.135z"  horiz-adv-x="1024" />

    
    <glyph glyph-name="health-wine" unicode="&#59045;" d="M640 832c0 35.584-28.928 64-64.576 64h-126.848c-36.224 0-64.576-28.672-64.576-64v-64h256v64zM640.128 704h-256.256c-71.104 0-127.872-320-127.872-320v-383.872c0-71.424 57.28-128.128 127.872-128.128h256.256c71.104 0 127.872 57.344 127.872 128.064v383.936c0 0-57.28 320-127.872 320zM512 0c-70.72 0-128 57.28-128 128s128 320 128 320 128-249.28 128-320-57.28-128-128-128z"  horiz-adv-x="1024" />

    
    <glyph glyph-name="liquor-wines2" unicode="&#58913;" d="M777.051 345.394c17.378 21.857 32.784 45.861 45.685 71.659 0 0 0 0.18 0.18 0.18 3.94 7.884 7.523 16.124 11.107 24.187 0.895 2.15 1.79 4.3 2.687 6.449 3.225 8.061 6.27 16.303 9.137 24.543 0.717 1.969 1.255 4.118 1.969 6.092 9.137 28.306 15.585 57.866 18.991 88.5 0 0.539 0.18 1.075 0.18 1.614v0c1.79 16.839 3.045 33.86 3.045 51.237 0 58.222-10.751 245.433-30.096 295.594h-656.039c-19.168-50.16-30.096-237.37-30.096-295.594 0-166.608 87.246-309.568 212.112-373.524h-0.539c0 0 110.894-52.133 110.894-125.404 0-65.389 0-101.934 0-125.404 0-71.659-252.061-108.028-209.067-143.319h508.78c42.816 34.218-228.054 71.659-228.054 143.319 0 24.006 0 60.014 0 125.404 0 73.092 110.894 125.404 110.894 125.404h-0.539c0.717 0.357 1.255 0.717 1.969 1.075 3.225 1.614 6.27 3.403 9.494 5.195 6.092 3.403 12.361 6.987 18.273 10.751 1.075 0.717 1.969 1.434 3.045 2.15 13.974 9.137 27.232 19.348 39.771 30.636 1.255 1.075 2.509 1.969 3.584 3.045 5.732 5.195 11.107 10.569 16.66 16.303 1.969 2.15 4.118 4.118 6.092 6.27 5.195 5.732 10.391 11.466 15.406 17.378 1.255 2.327 2.866 4.3 4.479 6.27zM225.452 620.027c0 31.351 3.762 194.018 10.928 223.935h551.060c7.344-29.917 10.928-192.585 10.928-223.935 0-17.378-1.434 40.847-3.584 24.187h-494.626c12.361-112.326 64.494-285.74 139.735-350.594-123.075 37.801-214.441 169.475-214.441 326.406z"  horiz-adv-x="1024" />

    
    <glyph glyph-name="plus-sign" unicode="&#58882;" d="M976.214 429.51h-436.907v436.907c0 20.098-16.311 36.409-36.409 36.409s-36.409-16.311-36.409-36.409v-436.907h-436.907c-20.098 0-36.409-16.311-36.409-36.409s16.311-36.409 36.409-36.409h436.907v-436.907c0-20.098 16.311-36.409 36.409-36.409s36.409 16.311 36.409 36.409v436.907h436.907c20.098 0 36.409 16.311 36.409 36.409s-16.311 36.409-36.409 36.409z"  horiz-adv-x="1024" />

    
    <glyph glyph-name="message" unicode="&#58885;" d="M31.374 685.564c0 20.665 16.997 37.415 37.789 37.415h903.696c20.87 0 37.789-16.758 37.789-37.415v-603.127c0-20.665-16.997-37.415-37.789-37.415h-903.696c-20.87 0-37.789 16.758-37.789 37.415v603.127zM203.020 500.885l317.99-157.015 317.99 157.015c18.652 9.21 26.306 31.795 17.097 50.447-9.21 18.652-31.795 26.306-50.447 17.097l-301.315-148.782h33.351l-301.315 148.782c-18.652 9.21-41.237 1.555-50.447-17.097s-1.555-41.237 17.097-50.447z"  horiz-adv-x="1024" />

    
    <glyph glyph-name="success" unicode="&#58888;" d="M512-162.133c-301.617 0-546.133 244.516-546.133 546.133s244.516 546.133 546.133 546.133c301.617 0 546.133-244.516 546.133-546.133 0-301.617-244.516-546.133-546.133-546.133zM830.699 551.602c-19.934 19.812-52.246 19.812-72.18 0l-288.753-287.266-144.391 143.572c-19.934 19.843-52.246 19.843-72.18 0-19.934-19.812-19.934-51.943 0-71.787l180.467-179.466c19.934-19.843 52.246-19.843 72.211 0l324.828 323.159c19.934 19.812 19.934 51.973 0 71.787z"  horiz-adv-x="1024" />

    
    <glyph glyph-name="shopping-car" unicode="&#58952;" d="M0 896v0 0zM968.428 659.303q28.246 0 43.427-7.609 7.609-3.265 13.028-7.609t8.686-9.763q6.532-10.874 5.42-22.791 0-4.344-0.555-8.129t-1.077-7.053-1.633-6.532l-13.028-35.819-20.637-59.721-22.791-64.064q-14.105-41.273-17.37-51.037-6.532-18.448-14.661-32.031t-17.927-21.158q-19.56-15.216-47.77-15.216h-516.784l15.216-86.855h495.071q47.77 0 47.77-40.161 0-19.56-9.763-33.665-8.686-14.105-36.931-14.105h-515.708q-6.532 0-12.473 1.077t-10.874 2.709-9.241 4.899q-13.028 8.686-21.714 22.791-4.344 6.532-8.129 14.105t-7.053 16.294q-5.42 20.637-7.609 31.475l-5.42 28.246-10.874 55.377-14.105 74.902-16.294 83.588-42.351 218.213h-73.826q-15.216 0-23.902 6.532-9.763 7.609-17.37 17.37-2.188 6.532-4.899 11.951t-3.786 10.874-1.633 10.874-0.555 9.763q0 19.56 13.028 32.587 7.609 5.42 16.294 8.686t19.56 3.265h99.882q19.56 0 31.475-5.42 5.42-3.265 10.318-6.532t9.241-7.609q6.532-9.763 8.686-18.448l5.42-17.37q1.077-4.344 3.265-16.294v-5.42l4.344-28.246 5.42-36.931h673.122zM803.404 107.777q8.686 0 17.927-1.633t17.927-4.899q17.37-6.532 29.322-19.56 13.028-13.028 20.637-28.246 6.532-16.294 6.532-34.742 0-8.686-1.633-17.927t-4.899-16.815q-7.609-15.216-20.637-29.322-11.951-11.951-29.322-18.448-16.294-7.609-35.819-7.609t-35.819 7.609q-17.37 7.609-28.246 18.448-13.028 14.105-19.56 29.322-7.609 16.294-7.609 34.742 0 8.686 1.633 17.37t5.976 17.37q6.532 15.216 19.56 28.246 5.42 6.532 13.028 11.396t15.216 8.129q5.42 2.188 11.396 3.786t11.951 2.188 12.473 0.555zM394.111 109.966q18.448 0 35.819-6.532 16.294-6.532 29.322-19.56 6.532-6.532 11.396-13.585t8.129-14.661q7.609-17.37 7.609-35.298t-7.609-34.186q-6.532-15.216-19.56-29.322-13.028-11.951-29.843-19.005t-35.298-7.053q-19.56 0-35.819 6.532-16.294 7.609-29.322 19.56-13.028 14.105-19.56 29.322-6.532 16.294-6.532 34.186t6.532 35.298q3.265 7.609 8.129 14.661t11.396 13.585q4.344 4.344 9.763 7.609l8.686 6.532q5.42 3.265 10.874 5.42 4.344 1.077 8.686 2.709t8.686 2.188 9.241 1.077 9.241 0.555z"  horiz-adv-x="1060" />

    
    <glyph glyph-name="other-wine" unicode="&#59231;" d="M421.195 39.561h-258.207v-86.319h257.199v2.025c0 4.464 0.33 8.793 1.008 13.075l-0.001 71.218zM293.522 469.381c-65.511 0-119.37-56.118-128.619-128.745h254.426c-9.052 72.623-61.743 128.745-125.806 128.745M344.834 813.753h-107.62c-23.455 0-42.481 19.255-42.481 43.020 0 23.767 19.025 43.015 42.481 43.015h107.62c23.461 0 42.474-19.249 42.474-43.015-0.002-23.762-19.011-43.020-42.474-43.020M506.242-89.468c0-23.763-20.002-43.015-46.523-43.015h-334.778c-26.522 0-48.020 19.252-48.020 43.015v408.596c0 96.597 53.151 179.354 129.103 216.085v235.547h172.133v-234.133c76.478-36.121 129.082-119.847 129.082-217.499v-363.575h-0.999l0.001-45.021zM894.567 340.637h-301.239v-344.089h301.242v344.089h-0.002zM936.253-44.448v-45.020c0-23.763-17.921-43.015-41.687-43.015h-301.236c-23.764 0-43.036 19.252-43.036 43.015v408.596c0 102.723 54.035 189.3 129.104 221.959v275.999c-13.794 6.462-23.518 21.766-23.518 39.686 0 23.767 17.044 43.015 38.073 43.015h96.445c21.027 0 38.066-19.249 38.066-43.015 0-16.204-8.25-29.791-19.967-37.124v-278.285c75.087-32.427 128.651-119.18 128.651-222.238v-363.575h-0.895z"  horiz-adv-x="1024" />

    
    <glyph glyph-name="password" unicode="&#58889;" d="M822.299 513.454h-80.598c0 129.454-98.826 228.332-224.991 228.332s-224.965-98.877-224.965-228.332h-80.598c0 155.344 137.066 308.928 305.563 308.928s305.588-153.584 305.588-308.928zM869.912 381.074c0 44.507-36.093 80.598-80.598 80.598h-537.855c-44.507 0-80.598-36.093-80.598-80.598v-382.535c0-44.48 36.093-80.572 80.598-80.572h537.881c44.48 0 80.572 36.093 80.572 80.598v382.511zM585.114 81.985c0-33.399-27.055-60.454-60.454-60.454h-8.57c-33.373 0-60.429 27.055-60.429 60.454v163.914c0 33.373 27.055 60.429 60.454 60.429h8.57c33.373 0 60.429-27.055 60.429-60.454v-163.889z"  horiz-adv-x="1024" />

    
    <glyph glyph-name="account" unicode="&#58901;" d="M511.485 728.774c115.361 0.006 230.714 0.062 346.074-0.069 13.036-0.013 26.198-0.113 39.085-1.803 62.174-8.157 92.858-42.054 93.049-104.779 0.475-155.986 0.517-311.977 0.004-467.954-0.222-67.933-45.253-114.356-113.023-114.554-243.769-0.715-487.542-0.782-731.311 0.051-67.565 0.229-110.374 43.501-110.756 110.817-0.883 155.252-0.897 310.516-0.021 465.775 0.425 75.437 37.775 111.925 113.422 112.335 121.159 0.656 242.319 0.174 363.478 0.18zM406.289 198.30399999999997c0 30.852 1.433 59.134-0.362 87.211-2.244 35.038-29.289 66.877-64.096 69.589-45.287 3.53-91.212 3.575-136.538 0.409-31.342-2.19-55.155-23.604-60.626-54.385-5.956-33.486-4.145-68.356-5.727-102.822 91.515-0.001 178.292-0.001 267.348-0.001zM354.698 492.989c-0.137 44.709-35.186 79.308-80.575 79.541-45.993 0.234-81.854-35.211-81.773-80.834 0.085-45.338 36.495-81.356 81.799-80.924 45.593 0.434 80.684 36.25 80.548 82.217zM670.802 302.389c42.085 0 84.166-0.229 126.247 0.09 24.243 0.179 35.763 9.371 36.656 27.882 0.978 20.186-9.797 32.066-34.714 32.298-84.881 0.804-169.785 0.813-254.661-0.098-24.659-0.262-35.326-12.427-34.395-32.733 0.85-18.71 11.837-27.219 36.793-27.375 41.355-0.254 82.715-0.067 124.074-0.063zM671.206 193.11300000000006c0-0.05 0-0.107 0-0.16 42.025 0 84.057-0.289 126.081 0.111 24.15 0.234 36.144 10.009 36.439 28.033 0.293 17.846-12.109 30.629-34.547 30.802-85.486 0.66-170.983 0.421-256.473-0.267-7.907-0.068-18.979-3.521-22.881-9.268-5.43-7.994-10.502-22.754-6.642-28.996 5.765-9.318 19.191-18.825 29.811-19.36 42.643-2.158 85.458-0.895 128.211-0.895zM717.034 410.612c26.746 0 53.495-0.315 80.235 0.094 22.589 0.348 36.737 11.424 36.317 28.518-0.549 22.266-17.47 27.558-34.535 27.851-55.635 0.965-111.313 0.961-166.949-0.029-21.479-0.382-35.33-13.75-33.129-29.327 2.839-20.042 16.751-27.193 35.653-27.134 27.474 0.085 54.939 0.022 82.409 0.027z"  horiz-adv-x="1024" />

    
    <glyph glyph-name="inspector" unicode="&#58922;" d="M512.001 879.055c-273.429 0-495.045-221.642-495.045-495.045 0-273.38 221.615-495.066 495.045-495.066 273.423 0 495.042 221.684 495.042 495.066-0.001 273.404-221.62 495.045-495.042 495.045v0zM492.95 119.179c32.275-3.748 102.174 80.91 117.247 79.148 5.37-0.613 12.131-7.995 10.988-17.661-3.634-31.221-145.091-150.073-253.827-137.443-38.762 4.547-63.589 25.954-58.815 66.865 6.029 51.69 52.902 135.679 62.586 153.159l97.38 180.705c9.801 18.478 1.253 29.318-7.379 30.298-39.856 4.624-102.427-82.999-121.775-80.762-7.582 0.871-13.134 9.204-12.383 15.65 2.266 19.37 54.894 59.068 70.516 71.428 47.809 35.92 107.453 60.623 169.904 53.356 46.302-5.364 92.559-39.117 41.645-139.083l-101.947-200.901c-8.315-15.399-23.3-40.958-25.312-58.181-0.865-7.517 2.535-15.58 11.173-16.582v0zM715.431 643.311c-5.78-49.558-50.938-81.42-99.412-75.773-44.128 5.133-69.829 37.603-64.713 81.747 5.551 47.408 50.943 81.376 98.338 75.846 43.082-4.989 70.907-37.687 65.787-81.822v0zM715.431 643.311z"  horiz-adv-x="1024" />

    
    <glyph glyph-name="collection" unicode="&#58886;" d="M820.905-128c-1.93 0-3.879 0.061-5.846 0.179-15.915 0.979-30.21 5.722-38.53 9.947l-238.558 117.31-240.229-117.377c-18.38-9.198-65.868-18.692-96.875 9.098-26.267 20.18-39.528 53.976-33.883 87.021l0.17 0.921 49.196 252.857-188.931 174.609c-24.637 23.921-33.661 60.408-23.010 92.996 10.425 32.365 38.73 56.483 72.32 61.674l262.448 47.715 117.509 236.613c15.581 31.151 46.732 50.437 81.342 50.437 34.321 0 66.203-19.837 81.263-50.539l117.447-236.372 262.438-46.109c34.079-5.197 61.803-28.778 72.47-61.695 10.667-32.627 1.693-69.089-22.882-92.938l-0.591-0.561-188.532-175.813 47.828-253.67c5.727-32.885-7.507-66.703-33.822-87.052-13.847-12.531-32.289-19.249-52.743-19.249v0zM813.192-44.54c1.976-0.772 5.197-1.391 7.363-1.477l0.030 0.029 2.712 1.947c2.527 1.817 3.89 5.058 3.428 8.114l-56.019 297.069 221.128 206.208c2.125 2.187 2.861 5.485 1.884 8.469l-0.057 0.175c-1.034 3.201-3.69 5.48-6.926 5.949l-1.22 0.195-303.767 53.37-136.064 273.836c-1.384 2.835-4.389 4.667-7.657 4.667-3.36 0-6.412-1.925-7.962-5.017l-135.748-273.347-304.993-55.428c-3.2-0.462-5.901-2.743-6.884-5.809l-0.097-0.314c-0.968-2.939-0.191-6.242 1.981-8.496l221.227-204.443-57.795-297.071c-0.443-3.18 0.797-6.303 3.215-8.029l1.873-1.333c2.728-0.086 6.916 0.474 9.309 1.2l275.936 134.818 275.101-135.281zM813.192-44.54z"  horiz-adv-x="1077" />

    
    <glyph glyph-name="order" unicode="&#58898;" d="M860.18 882.762h-63.167c-17.47 0-37.633-24.882-37.633-42.354 0-17.475 20.165-49.074 37.633-49.074h34.906c37.633 0 63.167-25.538 63.167-63.167v-684.685c0-37.629-25.534-63.167-63.167-63.167h-623.518c-37.628 0-79.289 25.538-79.289 63.167v684.685c0 37.629 25.534 63.167 63.167 63.167h51.030c17.475 0 24.193 31.601 24.193 49.074 0 17.47-6.718 42.354-24.193 42.354h-79.291c-88.699 0-126.333-69.233-126.333-141.806v-719.014c0-77.948 47.038-133.052 133.052-133.052h682.722c86.018 0 133.056 45.697 133.056 133.052v719.014c0 72.573-44.349 141.806-126.333 141.806v0 0zM403.238 789.334h220.41c25.534 0 47.038 25.535 47.038 55.104 0 29.562-21.504 55.103-48.386 55.103h-219.061c-26.88 0-48.38-25.535-48.38-55.103 0-29.57 21.5-55.104 48.38-55.104v0 0zM782.458 566.841c0-23.412-18.977-42.391-42.391-42.391h-457.819c-23.412 0-42.391 18.977-42.391 42.391v0c0 23.412 18.977 42.391 42.391 42.391h457.819c23.411 0 42.391-18.979 42.391-42.391v0zM782.458 391.626c0-23.412-18.977-42.391-42.391-42.391h-457.819c-23.412 0-42.391 18.977-42.391 42.391v0c0 23.412 18.977 42.391 42.391 42.391h457.819c23.411 0 42.391-18.979 42.391-42.391v0zM782.458 200.867c0-23.412-18.977-42.391-42.391-42.391h-457.819c-23.412 0-42.391 18.977-42.391 42.391v0c0 23.412 18.977 42.391 42.391 42.391h457.819c23.411 0 42.391-18.979 42.391-42.391v0z"  horiz-adv-x="1024" />

    
    <glyph glyph-name="upload-img" unicode="&#58911;" d="M787.692308 9.846153999999956L787.692308 9.846153999999956 137.846154 9.846153999999956c-25.6 0-39.384615 13.784615-39.384615 39.384615L98.461538 758.1538459999999c0 25.6 13.784615 39.384615 39.384615 39.384615l964.923077 0c25.6 0 39.384615-13.784615 39.384615-39.384615l0-354.461538 0 0 0 0c0-25.6 13.784615-39.384615 39.384615-39.384615 55.138462 0 59.076923 13.784615 59.076923 39.384615l0 0 0 0L1240.615385 797.538462c0 53.169231-35.446154 98.461538-86.646154 98.461538L94.523077 896C43.323077 896 0 850.707692 0 797.538462l0-787.692308c0-53.169231 43.323077-98.461538 94.523077-98.461538L787.692308-88.61538499999995l0 0c25.6 0 39.384615 11.815385 39.384615 39.384615C827.076923 3.9384619999999586 813.292308 9.846153999999956 787.692308 9.846153999999956L787.692308 9.846153999999956 787.692308 9.846153999999956zM787.692308 147.69230800000003c19.692308 39.384615 74.830769 78.769231 118.153846 78.769231l39.384615 0 0 55.138462c0 53.169231 33.476923 102.4 78.769231 122.092308l0 0 0 0-78.769231 196.923077L689.230769 305.230769l-315.076923 98.461538L137.846154 147.69230800000003 787.692308 147.69230800000003l0 7.876923L787.692308 147.69230800000003zM1102.769231-128l-39.384615 0c-9.846154 0-19.692308 9.846154-19.692308 19.692308L1043.692308 246.15384600000004c0 9.846154 9.846154 19.692308 19.692308 19.692308l39.384615 0c9.846154 0 19.692308-9.846154 19.692308-19.692308l0-354.461538C1122.461538-118.15384600000004 1112.615385-128 1102.769231-128zM1280 88.61538499999995l0-39.384615c0-9.846154-7.876923-19.692308-19.692308-19.692308L905.846154 29.53846199999998c-9.846154 0-19.692308 9.846154-19.692308 19.692308l0 39.384615c0 9.846154 9.846154 19.692308 19.692308 19.692308l354.461538 0C1272.123077 108.30769199999997 1280 98.46153800000002 1280 88.61538499999995zM315.076923 600.6153850000001m-78.769231 0a4 4 0 1 1 157.538462 0 4 4 0 1 1-157.538462 0Z"  horiz-adv-x="1280" />

    
    <glyph glyph-name="liquor" unicode="&#58895;" d="M304.252 808.407h170.204v-28.49h-170.204v28.49zM502.335 893.429h-227.329c0 0-14.373-12.32-9.239-26.693s15.399-18.48 25.667-21.561c10.268-3.079 11.294-13.974 11.294-22.387h171.886c0 8.413 1.027 19.307 11.294 22.387 10.268 3.079 20.533 7.187 25.667 21.561 5.134 14.374-9.239 26.693-9.239 26.693zM893.097 111.446c-8.461 8.093-39.424 6.834-39.424 6.834h-284.855c0 0-30.963 1.259-39.424-6.834-4.407-4.215-6.514-7.393-4.64-29.974 4.094-49.303 25.411-138.423 119.658-206.176h133.667c94.249 67.753 115.565 156.874 119.658 206.176 1.873 22.58-0.235 25.759-4.641 29.972zM499.933 92.741c-2.124 25.584 0.262 29.185 5.258 33.963 9.587 9.17 44.673 7.744 44.673 7.744h76.082c12.269 52.789 21.11 109.207 21.11 162.368 0 311.763-133.338 433.607-133.338 433.607-11.436 19.289-39.138 35.072-61.563 35.072h-132.789c-22.425 0-50.127-15.782-61.563-35.072 0 0-133.338-121.843-133.338-433.607 0-174.527 95.068-384.379 95.068-384.379 9.253-20.427 35.172-37.138 57.597-37.138h217.263c22.425 0 48.343 16.713 57.597 37.138 0 0 3.242 7.163 8.502 19.868-44.37 59.724-57.299 121.204-60.556 160.438z"  horiz-adv-x="1024" />

    
    <glyph glyph-name="rice-wine" unicode="&#58900;" d="M494.879 803.975c0 0-215.652-4.589-295.2-82.671 0 0-48.093-31.975-18.325-39.749 29.767-7.775 148.527 32.163 208.932-1.717 60.404-33.879 65.676-60.91 78.897-87.843 13.222-26.933 51.051-37.706 88.375 2.535 76.803 82.809 175.911 111.255 200.006 102.439 60.061-21.978 86.027-22.385 86.027-22.385s22.482-2.629 28.939 13.255c4.885 12.025-73.807 116.161-377.652 116.137zM406.743 818.658h207.869c20.563 0 37.386 16.825 37.386 37.387s-16.825 37.387-37.386 37.387h-207.869c-20.563 0-37.387-16.825-37.387-37.387s16.825-37.387 37.387-37.387zM760.695 671.955c-79.532 0.022-168.407-63.413-203.137-105.914-34.731-42.5-83.293-25.849-96.515 1.086-13.222 26.933-10.352 50.343-70.757 84.223-51.614 28.948-145.789 4.026-190.69 1.001-35.721-39.713-49.454-114.521-49.454-175.063 0-233.491 86.237-456.114 203.497-585.61 0 0 78.929-16.379 157.037-16.379 78.11 0 157.037 16.379 157.037 16.379 117.261 129.494 203.499 352.119 203.499 585.61 0 60.039-13.493 134.128-48.554 174.086-18.527 13.118-33.811 20.575-61.963 20.582zM510.678 117.794l-177.751 177.751 177.751 177.75 177.75-177.751-177.75-177.75z"  horiz-adv-x="1024" />

    
    <glyph glyph-name="foreign-wine" unicode="&#59150;" d="M992.849 832.1c7.988 6.39 30.353 63.9-23.963 63.9-1.598 0-910.577 0-910.577 0-49.523 0-43.133-47.925-28.755-62.303l464.874-559.126v-329.086h-145.373c-20.768 0-36.743-15.975-36.743-36.743 0-20.768 15.975-36.743 36.743-36.743h365.828c20.768 0 36.743 15.975 36.743 36.743 0 20.768-15.975 36.743-36.743 36.743h-145.373l-0 329.086 423.339 557.529z"  horiz-adv-x="1024" />

    
    <glyph glyph-name="aggregate" unicode="&#59024;" d="M1008.4712737 321.43228876l-192.0693868 32.68180825 200.08970522 187.48412672c4.30830759 4.03559429 5.95730495 10.16528756 4.25743879 15.81879232s-6.45610193 9.85583561-12.27634324 10.84636382L797.16923074 604.22622887l208.69360149 195.54683557L477.5688694 889.68512965 20.74560646 539.1593467600001l221.47298228-57.30232027L11.28259245 304.65829286999997c-4.71384398-3.61733901-6.95348633-9.60573081-5.7693725-15.42879732s5.58567926-10.46060935 11.33809641-11.94993594l209.71239137-54.25866955L11.28259245 57.827200370000014c-4.71384398-3.61733901-6.95348633-9.60573081-5.7693725-15.42879733s5.58567926-10.46060935 11.33809641-11.94993594l554.00674342-143.33846332c1.28585141-0.33206047 2.59430993-0.49597041 3.89146488-0.49597041 3.90135586 0 7.71369305 1.46954327 10.62875851 4.20091685l431.11189634 403.95218099c4.30830759 4.03700689 5.95730495 10.16528756 4.2574388 15.81879234C1019.0463382 316.23942970999997 1014.29010239 320.44175916999995 1008.4712737 321.43228876zM55.48619039 299.39478173l224.91934418 172.58238668 294.34540269-76.15628636 193.93740344 181.72040598 203.69573928-34.66851923L570.36491456 166.17921552999996 55.48619039 299.39478173zM570.36491456-80.65328957999998l-514.87872417 133.2155662 202.4692364 155.36328918c2.05877429 1.57975923 3.60179487 3.57636116 4.62341133 5.77643829l308.27922166-79.76232041c1.28585141-0.33206047 2.59430993-0.49597041 3.89146488-0.49597041 3.90135586 0 7.71369305 1.46954327 10.62875851 4.20091685l202.54129972 189.78170223L972.38407998 296.03885247000005 570.36491456-80.65328957999998z"  horiz-adv-x="1024" />

    
    <glyph glyph-name="indent" unicode="&#58959;" d="M853.397 177.754c-84.021 0-152.173-68.407-152.173-152.813 0-84.469 68.087-152.877 152.173-152.877s152.237 68.343 152.237 152.877c0 84.405-68.215 152.813-152.237 152.813v0zM953.865 64.872c0 0-109.49-108.082-110.066-108.658-12.478-12.35-19.006-10.367-24.509-4.735l-65.528 65.72c-5.503 5.567-5.183 14.91 0.768 20.861 5.887 6.015 15.23 6.335 20.797 0.704l53.561-53.753 103.731 101.683c6.015 5.887 15.614 5.759 21.501-0.256 5.887-6.079 5.759-15.742-0.256-21.565v0zM348.308 792.461h233.251c24.573 0 45.306 23.165 45.306 51.834 0 28.604-20.669 51.706-46.65 51.706h-231.907c-25.853 0-46.522-23.101-46.522-51.706 0-28.604 20.733-51.834 46.522-51.834v0zM835.864 225.3c27.133 0 52.921-5.567 76.342-15.806v512.192c0 70.263-37.691 118.897-116.657 118.897h-105.139c1.024-5.631 1.664-11.391 1.664-17.214 0.064-43.515-31.42-86.325-68.791-86.325h-322.904c-39.355 0-70.839 42.811-70.839 86.325 0.064 5.759 0.704 11.583 1.728 17.214h-106.419c-85.493 0-106.483-48.634-106.483-118.897v-695.401c0-75.447 30.076-117.681 112.946-117.681h556.794c-27.837 33.468-44.602 76.662-44.602 123.697 0 106.611 86.069 193 192.36 193v0zM242.786 576.488h455.751c16.83 0 31.036-15.742 32.316-33.916 0-16.958-17.662-35.132-34.492-35.132l-457.031 0c-16.894 0-27.581 18.174-27.581 35.132s14.206 33.916 31.036 33.916v0zM448.008 117.601h-208.678c-16.894 0-27.581 18.174-27.581 35.132s14.206 33.852 31.036 33.852h207.398c16.894 0 31.1-15.614 32.38-33.852 0-16.958-17.726-35.132-34.556-35.132v0zM237.41 309.513c-16.83 0-33.66 20.733-33.66 37.691 0 16.894 14.206 31.292 31.1 31.292h455.751c16.83 0 31.036-13.118 32.38-31.292 0-16.958-11.647-37.691-28.476-37.691h-457.095zM237.41 309.513z"  horiz-adv-x="1024" />

    
    <glyph glyph-name="wines" unicode="&#58914;" d="M241.274 887.996h113.518v-194.083h-113.518v194.083zM385.803 586.628c-26.816 22.079-30.467 72.74-30.467 72.74h-113.518c0 0-3.612-50.642-30.486-72.74-26.778-22.175-69.614-58.041-69.614-110.256v-571.241c0-20.661 16.758-37.418 37.477-37.418h238.726c20.661 0 37.418 16.778 37.418 37.418v571.221c0.019 52.235-42.72 88.080-69.536 110.275M405.9 44.669h-214.667v336.030h214.667v-336.030zM827.582-86.189h-70.914c-12.893 0-23.36 10.447-23.36 23.379v292.048c95.149 10.525 169.325 91.187 169.325 189.268 0 8.233-0.757 16.176-1.651 24.117l-15.243 216.821h-342.71l-18.681-209.599c-1.67-10.253-2.778-20.641-2.778-31.322 0-96.586 71.867-176.161 164.937-188.627v-292.708c0-12.932-10.506-23.379-23.418-23.379h-70.837c-12.525 0-22.7-10.253-22.757-22.738v-1.379c0.058-12.486 10.234-22.642 22.757-22.642h235.347c12.563 0 22.778 10.156 22.778 22.642v1.379c-0.058 12.486-10.291 22.738-22.797 22.738M574.293 426.273l18.757 187.714h238.144l18.719-187.714h-275.62z"  horiz-adv-x="1024" />

    
    <glyph glyph-name="me" unicode="&#58953;" d="M292.091 611.255c0-0 0-0 0-0 0-121.452 98.456-219.909 219.909-219.909 121.452 0 219.909 98.456 219.909 219.909 0 0 0 0 0 0 0 0 0 0 0 0 0 121.452-98.456 219.909-219.909 219.909-121.452 0-219.909-98.456-219.909-219.909 0-0 0-0 0-0zM701.713-63.163h-379.426c-100.841 0-183.347 82.506-183.347 183.347v0c0 100.841 82.506 183.347 183.347 183.347h379.426c100.841 0 183.347-82.506 183.347-183.347v0c0-100.841-82.506-183.347-183.347-183.347z"  horiz-adv-x="1024" />

    
    <glyph glyph-name="beer" unicode="&#58915;" d="M866.695 47.634h-101.933v-80.973c0-57.827-51.547-104.705-109.376-104.705h-385.716c-57.827 0-104.701 46.878-104.701 104.705v564.96h112.176v-557.713h74.378l0.099 557.713c19.965-14.394 49.904-25.088 75.126-30.785v-526.947h74.363v524.781c27.886 4.609 53.422 15.106 75.45 30.161v-554.941h74.389v557.739h215.758c46.25 0 83.754-37.504 83.754-83.763v-316.457c-0.009-46.275-37.507-83.774-83.767-83.774v0 0zM875.294 459.019h-110.547v-336.188h110.547v336.188zM696.873 566.327c-36.63 0-69.728 14.638-94.198 38.171-30.332-42.926-80.121-71.154-136.675-71.154-54.519 0-102.477 26.449-133.068 66.768-24.251-22.412-56.412-36.406-92.047-36.406-65.652 0-120.418 46.49-133.236 108.343-19.981 13.099-33.237 35.605-33.237 61.278 0 40.478 32.818 73.291 73.297 73.291 3.010 0 5.882-0.533 8.797-0.892 22.651 18.012 50.835 29.389 81.914 29.963 13.954 41.42 52.669 71.447 98.803 71.447 35.504 0 66.764-17.767 85.691-44.794 13.775 3.724 28.11 6.050 43.086 6.050 15.649 0 30.55-2.633 44.88-6.684 18.879 27.41 50.411 45.427 86.205 45.427 45.149 0 83.265-28.722 97.977-68.766 0.623 0.010 1.198 0.185 1.814 0.185 75.171 0 136.111-60.932 136.111-136.109 0-75.175-60.946-136.108-136.123-136.108l0.011-0.010zM696.873 566.327z"  horiz-adv-x="1024" />

    
    <glyph glyph-name="notice" unicode="&#59103;" d="M526.432-28.064c-20.96 0-44.16 12.576-68.96 37.344l-182.72 182.72h-82.752c-52.928 0-96 43.072-96 96v192c0 52.928 43.072 96 96 96h82.752l182.624 182.624c24.576 24.576 47.744 37.024 68.864 37.024 22.944 0 49.76-15.648 49.76-59.648v-704c0-44.352-26.72-60.064-49.568-60.064zM192 512c-17.632 0-32-14.368-32-32v-192c0-17.664 14.368-32 32-32h96c8.48 0 16.64-3.36 22.624-9.376l192.064-192.096c3.392-3.36 6.496-6.208 9.312-8.576v676.032c-2.784-2.336-5.952-5.184-9.376-8.608l-192-192c-5.984-6.016-14.144-9.376-22.624-9.376h-96zM687.584 165.632c-6.464 0-12.992 1.952-18.656 6.016-14.336 10.304-17.632 30.304-7.328 44.672l12.672 17.344c33.12 44.896 61.728 83.712 61.728 150.336 0 69.024-25.344 102.528-57.44 144.928-5.664 7.456-11.328 15.008-16.928 22.784-10.304 14.336-7.040 34.336 7.328 44.672 14.368 10.368 34.336 7.040 44.672-7.328 5.248-7.328 10.656-14.464 15.968-21.504 34.624-45.76 70.4-93.056 70.4-183.552 0-87.648-39.392-141.12-74.144-188.32l-12.224-16.736c-6.272-8.704-16.064-13.312-26.048-13.312zM796.448 56.992c-7.488 0-15.040 2.624-21.088 7.936-13.28 11.648-14.624 31.872-2.976 45.152 64.224 73.248 123.616 157.056 123.616 273.92 0 116.864-59.392 200.704-123.616 273.888-11.648 13.312-10.304 33.504 2.976 45.184 13.216 11.648 33.44 10.336 45.152-2.944 68.96-78.688 139.488-177.728 139.488-316.128s-70.528-237.472-139.488-316.096c-6.368-7.232-15.2-10.912-24.064-10.912z"  horiz-adv-x="1024" />

    
    <glyph glyph-name="message-null" unicode="&#59098;" d="M915.47 782.665h-806.877c-55.472 0-100.859-44.789-100.859-99.534v-597.196c0-54.742 45.386-99.534 100.859-99.534h806.877c55.472 0 100.858 44.789 100.858 99.534v597.196c0 54.742-45.385 99.534-100.858 99.534zM931.394 85.938c0-7.776-7.44-14.597-15.925-14.597h-806.877c-8.483 0-15.925 6.823-15.925 14.597v597.196c0 7.775 7.442 14.597 15.925 14.597h806.877c8.484 0 15.925-6.823 15.925-14.597v-597.196zM140.446 623.412v-91.001l371.586-227.503 371.587 227.503v91.001l-371.587-227.503z"  horiz-adv-x="1024" />

    
    <glyph glyph-name="correct" unicode="&#58931;" d="M396.5012954074074 36.80483555555543C376.85020444444456 36.80483555555543 357.2767857777776 44.33904829629648 342.2860325925926 59.32980148148158L35.55813451851844 367.30045629629626C5.6543004444446865 397.35963496296296 5.6543004444446865 446.137837037037 35.55813451851844 476.1970157037037 65.53964088888898 506.25619437037045 114.08482607407404 506.25619437037045 143.9886601481482 476.1970157037037L396.5012954074074 222.67464059259282 879.0015999999999 707.1167525925925C908.905434074074 737.2536035555556 957.4506192592592 737.2536035555556 987.4321256296294 707.1167525925925 1017.335959703704 677.0575739259259 1017.335959703704 628.3570441481481 987.4321256296294 598.2978654814815L450.7165582222222 59.32980148148158C435.72580503703705 44.33904829629648 416.07471407407405 36.80483555555543 396.5012954074074 36.80483555555543Z"  horiz-adv-x="1024" />

    
    <glyph glyph-name="collect" unicode="&#58932;" d="M1019.483 514.21c-8.995 25.986-31.982 45.975-58.968 49.973l-266.853 40.977-114.937 247.864c-11.993 25.986-37.979 42.976-66.963 42.976-28.984 0-54.97-16.991-66.963-42.976l-115.936-247.864-265.854-40.977c-26.985-3.998-49.973-22.987-58.968-49.973-8.995-25.986-1.999-55.969 16.991-74.959l194.893-200.89-44.975-278.847c-4.997-27.985 6.996-55.969 29.984-72.96 12.993-8.995 27.985-13.992 42.976-13.992 11.993 0 24.986 2.998 35.98 8.995l231.872 124.931 231.872-124.931c10.994-5.997 23.987-8.995 35.98-8.995 14.992 0 29.984 4.997 42.976 13.992 22.987 16.991 34.981 44.975 29.984 72.96l-44.975 278.847 195.892 200.89c17.99 19.989 24.986 48.973 15.991 74.959z"  horiz-adv-x="1024" />

    
    <glyph glyph-name="no-affect" unicode="&#58956;" d="M142.283 317.831l21.989-88.223c3.047-12.054 10.465-16.823 22.521-13.776l150.615 37.62c6.491 1.589 11.657 4.769 14.836 9.273 3.974 6.623 2.782 26.362-3.842 59.081l22.254-1.325c6.094-37.223 6.889-60.141 2.253-69.413-4.9-7.814-12.982-13.247-24.639-16.691l-162.406-40.534c-22.387-5.565-36.164 3.444-41.86 26.493l-38.681 155.12 21.196 5.298 10.597-42.39 161.079 39.872-19.207 76.831-197.907-49.41-5.167 20.532 219.499 54.709 29.407-117.633-182.541-45.437zM436.757 518.124c-1.325-14.704-3.444-28.745-6.094-41.86l59.477 14.836-12.85 51.531 21.725 5.43 12.85-51.531 98.556 24.639 5.167-20.532-98.556-24.639 4.769-19.075c2.914-14.306 5.033-27.819 6.094-40.668l121.474 30.334 5.033-20.268-109.419-27.289c25.036-38.813 71.135-62.259 138.561-70.473l-7.153-21.459c-71.003 11.657-120.412 39.078-148.099 82.793-0.796-20.798-4.503-39.609-11.261-56.3-13.646-31.792-41.727-61.068-84.382-87.562l-15.895 15.102c42.124 26.758 69.545 54.577 81.733 83.455 4.769 13.646 7.551 28.745 8.212 44.907l-109.419-27.289-5.033 20.268 113.922 28.348c-0.662 12.982-2.914 26.493-5.827 40.8l-4.769 19.075-70.339-17.484c-6.226-20.003-14.042-37.62-23.844-52.458l-21.858 11.127c20.665 30.203 32.454 66.499 35.899 109.285l21.328-3.047zM739.447 575.217l55.372 13.776 5.033-20.268-136.177-33.911-5.033 20.268 60.273 15.102c-7.021 9.538-14.571 18.279-22.122 26.097l21.196 9.008c6.889-9.008 14.042-18.811 21.459-30.071zM726.068 526.205c-5.961-30.203-14.836-57.093-26.626-81.337l-20.135 8.080c11.79 22.652 20.665 48.618 26.229 77.758l20.532-4.503zM764.484 437.054c3.444 15.235 5.696 31.13 6.623 47.555l20.135-3.047c-0.796-19.606-3.312-38.284-7.418-55.636 15.365-9.008 30.203-18.413 44.642-28.614l-10.862-20.532c-13.776 10.067-27.155 18.811-39.872 26.892-11.393-32.19-28.745-60.007-52.988-83.189l-17.618 15.632c23.579 21.858 40.8 48.351 51.397 79.348-15.498 9.273-30.867 17.354-45.701 24.241l9.538 18.279c14.439-6.226 28.482-13.379 42.124-20.93zM745.674 529.251l9.802 15.895c14.175-6.491 31.13-17.221 51.397-32.19l-10.333-17.618c-17.75 13.646-34.575 24.771-50.868 33.911zM836.678 508.453c-2.65-11.923-6.226-22.784-9.936-33.116l-17.618 12.85c12.583 37.489 15.764 84.515 9.141 141.343l22.122 1.723c1.723-17.088 2.516-32.852 2.782-47.689l82.66 20.665 5.167-20.532-25.036-6.226c9.936-47.159 9.538-89.814-1.191-128.098 23.579-22.917 49.012-38.681 76.17-47.291l-7.683-21.593c-27.289 9.141-52.458 25.036-75.638 47.424-12.187-29.938-31.13-57.093-56.3-81.203l-16.823 16.161c27.023 24.241 46.233 51.531 57.093 81.998-16.028 18.279-30.997 39.609-44.907 63.586zM841.183 539.319c14.571-28.215 30.203-52.192 46.894-71.797 6.889 32.323 6.623 67.295-1.457 104.914l-43.847-10.994c-0.529-7.551-0.796-15.102-1.589-22.122zM551.475-184.884c-15.365 0-31.396 0.927-47.555 2.914-25.699 3.312-51.397 7.949-76.301 13.908l-3.18 0.662c-5.167 1.060-10.597 2.253-15.895 3.709 0 0-18.944 4.371-18.944 4.503-6.623 1.986-13.646 3.709-20.401 5.298-5.827 1.457-11.79 2.914-17.618 4.503-22.784 5.696-49.807 12.85-77.362 22.521-22.652 7.814-45.569 19.075-74.314 36.826-21.858 13.379-43.582 30.203-66.63 51.397-19.34 18.279-37.886 38.946-56.432 63.453-31.659 42.523-57.756 93.126-77.494 150.483l-6.623 20.003c-1.457 4.371-2.65 8.742-3.842 12.982-0.662 2.385-1.325 4.769-1.986 7.285-2.253 7.285-4.107 14.042-5.565 20.268-0.529 2.385-1.191 4.769-1.856 7.153-1.060 4.239-2.253 8.609-3.18 13.114-2.385 9.141-3.974 18.413-5.696 27.421-0.397 2.385-0.796 4.637-1.325 7.021-0.132 1.060-0.397 1.986-0.529 3.047-2.65 14.042-6.094 29.143-13.247 43.316-0.132 0.267-0.267 0.529-0.267 0.796-15.365 110.743 4.637 227.977 56.697 330.109 26.229 51.265 58.153 97.363 94.978 137.236 10.199 10.731 19.34 20.268 29.276 29.276l15.235 13.646c4.769 3.974 9.802 7.949 16.028 12.85 23.977 17.484 46.894 30.867 70.209 41.066 17.75 7.949 35.633 14.969 53.121 21.858 6.623 2.65 13.114 5.167 19.737 7.814 20.135 8.346 40.8 15.895 60.803 23.181 3.709 1.325 7.285 2.65 10.994 3.974 2.914 0.927 5.827 1.986 8.742 2.914 9.008 3.047 18.413 6.226 27.95 8.742 2.118 0.529 4.371 1.191 6.491 1.856 3.974 1.060 8.080 2.253 12.054 3.18 6.094 1.325 12.187 2.516 18.148 3.709 3.312 0.662 5.696 1.191 9.538 1.723l9.405 1.191c6.226 0.796 12.452 1.589 18.546 2.118 0 0 0.132 0 0.267 0 3.577 0.267 7.285 0.397 10.862 0.662 8.609 0.529 17.484 1.191 26.229 1.191 1.325 0 2.65 0 3.974 0 46.098 0 92.596-6.094 138.164-18.148 45.171-12.054 87.164-28.614 124.521-49.41 33.78-18.017 66.234-41.727 99.219-72.327 31.792-30.203 55.769-55.504 75.506-79.878 39.078-47.555 70.738-100.411 91.802-153.001 19.34-46.894 26.892-85.971 30.867-111.273 0.132-0.796 0.267-1.589 0.397-2.516 1.060-5.696 1.986-10.994 0.529-16.161-0.662-2.782-1.457-5.43-2.118-7.683-0.662-1.986-1.191-3.842-1.457-5.298 0 0 0-0.132 0-0.132-0.796-3.047-0.796-5.298-0.796-7.021 0.132-1.589 0.132-2.385 0.267-2.516 0-0.267 0.267-3.709 0.927-10.199 0.132-2.118 0.397-4.503 0.662-7.153 0.529-6.094 1.325-13.646 1.589-22.784 1.457-24.905 2.914-63.849-1.986-113.922-1.723-23.446-6.094-50.074-13.247-81.337-0.662-2.65-1.325-5.167-1.986-7.814-1.191-4.769-2.385-9.67-3.709-14.571l-7.021-23.050c-5.827-16.823-11.923-32.323-18.677-47.424-17.618-37.886-36.561-69.148-58.153-95.774-23.050-28.215-52.458-56.034-89.946-84.911-10.994-8.346-22.784-16.161-34.177-23.712-6.491-4.239-13.247-8.742-19.737-13.247l-13.776-9.405c-4.769-3.047-9.538-5.961-14.439-9.008-6.623-4.371-13.646-8.479-20.532-12.32-2.914-1.723-5.961-3.312-8.876-5.033-38.284-21.459-83.189-38.813-133.527-51.397-8.479-2.118-17.484-3.709-26.097-5.298-3.577-0.662-7.153-1.325-10.731-1.986 0 0-0.132 0-0.132 0-5.961-0.662-12.054-1.457-18.017-2.118l-9.008-1.060c-2.65-0.267-4.637-0.397-6.623-0.529-1.060-0.132-2.118-0.132-3.312-0.267-9.802-0.796-19.606-1.191-29.407-1.191zM-25.291 291.471c1.723-8.876 4.107-17.883 6.358-26.493 0.662-2.385 1.325-4.769 1.856-7.153 8.742-28.878 18.677-54.047 30.203-76.566 13.908-26.493 27.819-49.147 42.655-69.413 18.017-24.241 34.706-44.509 50.998-61.862 32.986-35.369 71.401-69.148 117.633-103.059 21.459-15.102 43.184-29.54 64.379-42.919 21.196-13.114 43.98-26.758 68.22-35.767 36.031-14.306 76.301-21.196 123.194-21.196 7.949 0 16.293 0.267 24.639 0.662 4.769 0.397 9.538 0.662 14.175 0.927 7.285 0.397 14.836 0.796 22.122 1.723 2.65 0.267 5.167 0.397 7.683 0.529 3.444 0.267 6.889 0.397 10.333 0.796 5.961 0.796 12.054 1.457 17.883 1.986l8.479 0.796 8.876 1.325 18.017 2.65c3.577 0.662 7.285 1.325 10.994 1.986 7.814 1.325 15.235 2.65 22.784 4.371 43.582 9.008 86.501 23.181 127.699 42.257 23.844 11.127 41.329 20.665 56.432 30.867 14.571 8.876 27.023 20.135 39.21 31.13 3.047 2.65 5.961 5.43 9.008 8.080 30.997 28.215 55.239 59.874 75.638 87.296 25.963 34.972 43.847 61.598 57.756 86.501 30.071 51.794 52.458 106.637 64.379 158.564 8.742 37.223 12.718 74.713 11.79 111.141 0.132 9.141-0.529 16.823-1.060 22.784-0.267 2.65-0.397 4.769-0.529 6.889l-0.796 9.936-0.397 2.385c-0.267 1.325-0.927 3.577-2.65 6.623 0 0 0 0.132-0.132 0.132-0.662 1.325-1.723 2.914-2.782 4.769-1.325 1.986-2.782 4.371-4.107 6.889-2.253 4.239-3.18 8.876-4.107 13.908-0.267 1.060-0.397 2.118-0.662 3.312-6.491 34.309-16.691 69.942-30.468 106.107-7.551 20.665-18.413 43.98-33.248 71.532-14.306 26.626-31.792 52.458-51.927 77.095-24.905 29.938-49.676 53.916-75.905 72.99-28.614 21.196-61.997 41.595-99.219 60.67-40.005 19.606-78.421 34.044-117.366 44.112-39.21 10.333-82.66 16.028-132.733 17.484-4.107 0.267-8.479 0.267-13.776 0.267-3.444 0-6.889 0-10.333-0.132-3.444 0-7.021-0.132-10.465-0.132h-0.267c-5.43-0.397-10.994-0.529-16.293-0.796-6.226-0.132-12.718-0.397-18.944-0.927h-1.060c-11.79-0.662-23.844-1.457-35.369-2.65-9.273-0.662-18.811-1.986-27.95-3.312-2.782-0.397-5.565-0.796-8.346-1.191-51.265-8.479-98.556-28.878-136.973-58.948-21.459-15.365-42.257-32.587-60.538-47.689-17.75-13.776-35.633-29.805-57.888-51.663-17.088-17.088-33.911-36.561-51.265-59.477-13.908-18.413-27.421-39.742-42.39-67.295-49.94-92.993-72.724-204.53-63.983-314.214 0-0.267 0-0.529 0-0.796-3.047-13.511-3.047-27.686 0-44.775 0.132-0.927 0.397-1.986 0.529-3.047zM112.212 500.769c-0.132 0-0.397 0-0.529 0.132-1.325 0.267-2.253 1.589-1.986 2.914 0 0.132 0.529 3.709 1.723 10.333 1.325 7.153 3.312 16.823 6.756 28.614 3.709 13.646 8.876 28.215 15.235 43.184 4.107 9.802 7.949 17.883 12.187 25.566 3.577 6.358 7.949 12.583 12.583 19.075 1.589 2.253 3.312 4.637 4.9 6.889l3.709 5.43c11.393 16.559 23.181 33.78 37.62 50.998 0 0 0 0.132 0.132 0.132 8.609 9.273 17.883 18.279 27.289 26.892 0.132 0 0.132 0.132 0.267 0.132l2.516 1.856c9.538 7.021 19.34 14.175 28.215 22.521 0 0 0.132 0 0.132 0.132 1.986 1.723 3.974 3.444 5.961 5.167 8.212 7.153 16.823 14.571 26.097 21.062 5.167 3.709 10.994 6.756 16.559 9.802l1.856 0.927c6.226 3.444 12.718 6.756 18.944 9.67 8.212 3.577 16.691 6.491 24.771 9.273 5.033 1.723 10.333 3.577 15.498 5.565 0.132 0 0.132 0 0.267 0.132 1.986 0.529 4.107 1.060 6.094 1.589 4.769 1.325 9.67 2.65 14.439 4.107 1.457 0.529 2.914 0.927 4.371 1.325 5.298 1.589 10.333 3.047 14.836 6.226 0.267 0.132 0.529 0.267 0.927 0.397 4.9 1.191 9.802 2.385 14.704 3.577 8.876 2.253 18.017 4.503 27.155 6.358 0 0 0.132 0 0.132 0 4.371 0.529 8.609 1.191 12.982 1.856 9.67 1.325 19.606 2.782 29.54 3.577 0 0 0.132 0 0.132 0 5.43 0.132 10.994 0.397 16.426 0.662 6.491 0.397 13.247 0.662 20.003 0.662 1.986 0 3.842 0 5.696-0.132 2.65-0.132 5.167-0.267 7.683-0.397 11.127-0.662 22.652-1.191 33.646-4.107l0.267-0.132c6.491-1.723 12.718-3.444 19.075-4.503 3.709-0.662 7.551-1.191 11.261-1.589 2.65-0.267 5.43-0.662 8.080-1.060 11.393-2.118 24.771-4.637 37.357-8.080 0 0 0.132 0 0.132 0 20.93-7.418 44.907-16.161 64.379-27.553 5.033-2.65 9.538-5.033 13.776-7.418 3.577-1.856 6.623-3.974 9.67-6.094 1.060-0.796 2.253-1.589 3.444-2.253 0 0 19.075-12.982 23.050-15.764 15.365-10.994 27.155-20.003 36.031-27.819 8.742-7.418 15.102-13.908 19.869-18.677l1.457-1.457c5.43-4.9 6.226-9.802 6.358-10.333 0.132-0.796-0.132-1.723-0.796-2.253-0.529-0.529-1.191-0.662-1.856-0.662-0.132 0-0.397 0-0.529 0-0.529 0.132-5.298 1.191-10.199 6.623-4.107 4.107-10.597 10.067-20.93 19.34-9.936 8.742-20.93 18.148-34.838 27.686-5.43 3.842-13.646 9.405-23.050 14.439-4.107 2.253-8.609 4.637-12.982 6.623-4.371 1.986-9.008 4.239-14.306 6.756l-14.704 7.153-7.418 3.709c-2.516 0.927-8.742 3.312-8.742 3.312-10.333 3.974-20.93 8.080-31.792 12.187-12.32 3.444-24.905 7.949-35.633 11.79-10.465 3.18-22.521 5.167-38.018 6.094 0 0-0.132 0-0.132 0-2.65 0.397-5.298 0.397-7.551 0.397-0.927 0-1.986 0-2.914 0-0.927 0-1.986 0-2.914 0-1.723 0-4.107 0-6.623 0.267-4.239 0.267-8.742 0.662-12.982 0.927-2.385 0.267-4.769 0.397-7.153 0.529-3.974 0.267-8.479 0.397-13.511 0.397-4.9 0-9.936-0.132-14.836-0.267-4.239-0.132-8.479-0.132-12.85-0.267-8.346-0.397-16.823-1.457-25.169-2.516-5.298-0.662-10.862-1.325-16.293-1.856-9.141-1.191-18.148-3.047-26.892-4.9-4.9-1.060-9.936-2.118-14.836-3.047-0.132 0-0.397 0-0.529 0 0 0-0.132 0-0.132 0-0.267 0-0.529 0-0.796 0-4.769 0-9.273-1.589-13.908-3.312-1.589-0.529-3.312-1.191-5.033-1.723-5.961-2.118-12.85-4.637-19.473-7.551l-37.223-19.473c-9.936-6.491-20.135-12.187-30.071-17.75-1.856-1.060-3.709-2.118-5.43-3.047-6.226-4.503-12.982-8.212-19.606-11.79-5.033-2.782-10.333-5.696-15.102-8.876-10.731-8.080-20.268-17.618-28.614-26.097-8.080-9.67-16.691-19.075-25.434-27.686-4.769-5.167-9.273-10.597-13.646-16.028-2.914-3.709-6.094-7.418-9.141-10.994-7.814-8.609-13.646-18.413-18.148-27.023-1.589-2.782-3.047-5.565-4.637-8.212-3.577-6.358-7.021-12.32-9.936-18.413-1.060-2.118-2.118-4.107-3.18-5.961-3.444-6.358-6.623-12.452-9.538-18.413-7.814-15.895-13.776-30.071-18.017-40.8-4.9-12.718-8.080-21.725-9.802-27.155l-3.312-9.802c-0.397-1.060-1.457-1.723-2.516-1.723zM517.167-26.982c0 0-0.132 0-0.132 0l-21.989 1.060c-2.65 0.267-5.298 0.397-7.814 0.397-4.637 0.267-9.405 0.529-14.175 1.060-6.756 1.191-13.247 2.914-19.606 4.503l-1.723 0.397c-4.371 1.191-8.609 2.253-12.85 3.312-2.516 0.662-5.033 1.191-7.551 1.856-7.021 1.986-13.646 3.444-20.003 4.637-2.65 0.529-5.167 1.060-7.683 1.457-4.107 0.796-8.346 1.457-12.452 2.65-5.167 1.589-10.199 3.444-14.969 5.298-1.325 0.529-2.65 0.927-3.974 1.457l-4.503 1.589c-4.503 1.723-9.273 3.444-13.776 5.167-3.974 1.589-7.551 3.577-11.127 5.43-1.856 0.927-3.842 1.986-5.696 2.914-3.709 1.986-7.285 3.709-10.731 5.565-7.285 3.577-14.042 7.021-20.798 11.393-14.836 9.141-27.819 19.473-39.343 28.614-3.709 3.047-7.285 5.827-10.731 8.479-14.836 12.187-26.892 23.050-35.899 32.19-8.346 8.346-14.571 15.632-19.075 20.93l-1.723 2.118c-5.167 5.696-5.827 10.731-5.827 11.261-0.132 0.927 0.267 1.723 0.927 2.253 0.662 0.529 1.589 0.796 2.516 0.529 0.529-0.132 5.167-1.723 9.936-7.814 4.371-5.033 10.994-12.32 20.532-22.254 9.273-9.538 20.532-20.665 34.575-31.925 13.379-11.393 30.203-21.459 50.868-33.515l7.153-3.974c2.516-1.191 5.033-2.516 7.683-3.842l16.028-8.080c1.856-0.927 3.842-1.986 5.827-2.914 3.444-1.723 7.021-3.577 10.597-5.033 4.371-1.589 9.008-3.444 13.379-5.298l4.107-1.723c1.191-0.529 2.385-0.927 3.577-1.457 4.637-1.856 9.538-3.842 14.306-6.094 3.709-1.325 7.418-2.65 11.261-3.974l7.551-2.782c5.961-2.253 12.32-4.239 19.473-6.094 4.769-1.191 9.802-1.589 15.102-1.986 1.723-0.132 3.577-0.267 5.298-0.397l1.457-0.132c6.491-0.529 13.114-1.191 19.737-2.118 4.503-0.529 9.141-0.796 13.511-1.191 2.516-0.132 5.167-0.397 7.683-0.662l21.593-1.856 21.858 0.397c2.65 0.132 5.298 0.132 7.814 0.132 4.637 0 9.405 0 14.042 0.662 7.418 0.796 14.836 1.723 22.254 2.516 10.731 0.662 21.328 2.914 31.659 5.167 3.974 0.796 8.212 1.723 12.32 2.516 0.132 0 0.132 0 0.267 0 24.373 2.65 46.495 14.042 67.956 25.036 4.637 2.385 9.405 4.9 14.175 7.153 10.199 6.226 23.844 14.306 37.754 21.725 6.491 4.637 13.379 8.479 20.003 12.187 5.565 3.047 11.261 6.358 16.426 9.802 10.731 8.346 20.798 17.618 30.071 27.686 8.876 10.597 18.148 20.401 26.626 29.276l23.712 28.878c6.358 8.212 12.583 17.75 18.677 29.011 5.565 9.273 9.936 18.413 14.704 28.482l0.132 0.267c4.503 9.141 8.742 17.618 12.583 25.831 7.814 17.088 13.511 32.323 17.484 43.713 3.842 11.393 7.153 21.593 9.273 29.011 1.986 6.889 3.047 10.465 3.047 10.465 0.397 1.325 1.723 2.118 3.047 1.856 1.325-0.267 2.253-1.457 2.118-2.914 0-0.132-0.397-3.974-1.457-10.994-1.589-10.199-3.577-20.268-6.094-30.468-3.444-14.704-8.479-30.203-14.704-46.098-7.418-20.003-17.484-38.813-29.938-55.504-0.927-1.457-1.986-2.914-3.18-4.371-2.253-3.18-4.637-6.358-6.623-9.802-1.191-1.723-2.118-3.577-3.18-5.298-1.986-3.444-4.107-6.889-6.623-10.199-5.43-7.153-10.994-14.571-16.691-22.122l-6.226-8.212c0 0-0.132-0.132-0.132-0.132-7.814-8.742-16.955-17.75-28.745-28.482-3.18-2.914-6.756-5.43-10.067-7.949-2.118-1.589-4.371-3.18-6.491-4.9-5.565-4.239-10.862-8.876-15.895-13.511l-3.444-3.047c-9.67-8.346-19.606-16.955-30.468-24.639-7.021-4.503-14.042-8.346-19.473-11.261l-3.18-1.723c-5.43-2.914-11.127-5.961-17.088-8.479l-4.503-1.723c-12.452-4.769-25.302-9.538-38.284-13.379-8.212-2.118-15.235-4.107-21.725-5.961l-10.731-3.312c-0.796-0.267-1.589-0.529-2.385-0.662-0.927-0.267-1.856-0.397-2.516-0.796 0 0-0.132-0.132-0.132-0.132-0.397-0.267-0.796-0.397-1.325-0.662-1.325-0.662-2.782-1.589-4.503-1.986-4.107-0.927-8.080-1.986-12.054-2.914-10.597-2.65-21.459-5.298-32.587-6.491l-22.254-3.047c-4.9-0.662-9.936-0.796-14.836-0.927-2.516-0.132-5.298-0.132-7.814-0.267l-23.181-0.796c0.132 0 0 0 0 0zM456.496-15.193c5.696-1.457 11.525-2.914 17.354-3.974 4.371-0.529 9.008-0.796 13.646-1.060 2.65-0.132 5.298-0.267 7.949-0.529l21.858-1.060 22.122 0.927c2.65 0.132 5.298 0.267 7.949 0.267 4.637 0.132 9.538 0.267 14.175 0.927l1.723 0.267c-0.529 0-1.060-0.132-1.457-0.132-4.9-0.662-9.802-0.662-14.571-0.662-2.516 0-5.167 0-7.814-0.132l-21.989-0.397c-0.132 0-0.132 0-0.267 0l-21.725 1.856c-2.516 0.267-5.167 0.397-7.683 0.662-4.503 0.397-9.141 0.662-13.776 1.191 0 0-0.132 0-0.132 0-5.827 0.796-11.657 1.325-17.354 1.856zM283.228 55.015c7.683-5.827 16.028-11.923 25.036-17.354 6.623-4.239 13.247-7.551 20.401-11.127 3.577-1.723 7.153-3.577 10.862-5.565 1.856-0.927 3.842-1.986 5.827-2.914 3.444-1.723 7.021-3.577 10.597-5.167 4.371-1.723 8.876-3.444 13.646-5.167 1.457-0.529 2.914-1.060 4.503-1.589 1.325-0.529 2.65-0.927 3.974-1.457 4.769-1.723 9.67-3.577 14.704-5.167 2.914-0.796 5.827-1.457 9.008-1.986-2.914 1.060-5.827 2.118-8.609 3.047-0.132 0-0.132 0-0.267 0.132-4.769 2.253-9.538 4.107-14.175 5.961-1.191 0.529-2.385 0.927-3.577 1.457l-4.107 1.723c-4.637 1.856-8.876 3.577-13.379 5.298-3.974 1.589-7.551 3.444-11.127 5.298-1.856 0.927-3.842 1.986-5.696 2.914l-16.028 8.080c-2.65 1.325-5.298 2.65-7.814 3.842l-7.418 4.107c-9.802 5.565-18.546 10.731-26.362 15.632zM775.612 60.711c-1.856-1.060-3.842-2.118-5.696-3.18-6.623-3.709-13.511-7.551-19.737-12.054-0.132-0.132-0.132-0.132-0.267-0.132-13.908-7.418-27.421-15.498-37.754-21.725-0.132 0-0.132-0.132-0.267-0.132-4.637-2.253-9.538-4.769-14.175-7.153-2.118-1.060-4.239-2.118-6.358-3.312 5.827 2.118 11.79 4.371 17.484 6.491l4.371 1.723c5.565 2.385 11.127 5.43 16.559 8.212l3.18 1.723c5.298 2.782 12.32 6.623 19.075 10.862 8.212 5.827 16.028 12.187 23.579 18.677zM931.923 280.343c-3.974-11.127-9.405-25.434-16.691-41.198-3.842-8.346-8.080-16.955-12.718-25.963l-0.132-0.132c-4.769-10.199-9.273-19.473-14.836-28.878-6.226-11.393-12.583-21.196-19.207-29.805l-23.844-29.011c0 0-0.132-0.132-0.132-0.132-8.479-8.876-17.618-18.413-26.626-29.143-0.927-1.060-1.986-2.118-2.914-3.18 1.060 0.796 2.118 1.723 3.18 2.65 11.525 10.597 20.532 19.473 28.348 28.084l6.094 8.212c5.696 7.551 11.261 14.969 16.691 22.254 2.385 3.047 4.371 6.358 6.226 9.67 1.060 1.856 2.118 3.709 3.312 5.43 2.118 3.577 4.503 6.889 6.889 10.067 1.060 1.457 2.118 2.914 3.047 4.371 12.187 16.426 21.989 34.575 29.276 54.311 5.961 14.571 10.597 28.878 14.042 42.39z"  horiz-adv-x="1024" />

    
    <glyph glyph-name="pay-pass" unicode="&#58897;" d="M768.574707 568.481526c-3.708532 0-6.752958 2.932526-6.890401 6.638625-5.087829 136.011536-110.352241 238.576954-244.854335 238.576954s-239.766506-102.565418-244.854335-238.576954c-0.137443-3.704883-3.181869-6.638625-6.890401-6.638625l-65.899726 0c-1.874335 0-3.667177 0.762627-4.967414 2.112732-1.29902 1.348889-1.99475 3.169706-1.922988 5.042825 2.891171 76.820981 37.54022 155.353312 95.061996 215.459749 30.253302 31.611921 64.997223 56.57427 103.269662 74.194966 40.441122 18.62172 82.889157 28.062726 126.166715 28.062726 43.276343 0 85.728026-9.442222 126.174013-28.062726 38.276088-17.621913 73.024875-42.585478 103.281825-74.196182 57.532723-60.107653 92.187854-138.639984 95.080241-215.459749 0.071762-1.873119-0.623968-3.693936-1.924204-5.042825-1.29902-1.350105-3.091862-2.112732-4.966197-2.112732L768.574707 568.4803099999999zM538.04 194.68363799999997l0-57.811258 105.14643 0c11.719156 0 21.197867-9.516417 21.197867-21.217328 0-11.698478-9.478711-21.160161-21.197867-21.160161l-105.14643 0 0-65.034929c0-11.702127-9.531012-21.161377-21.197867-21.161377-11.721588 0-21.252601 9.45925-21.252601 21.161377l0 65.034929-105.143997 0c-11.721588 0-21.200299 9.461683-21.200299 21.160161 0 11.700911 9.478711 21.217328 21.200299 21.217328l105.143997 0 0 57.811258-105.143997 0c-11.721588 0-21.200299 9.461683-21.200299 21.162594s9.478711 21.217328 21.200299 21.217328l97.85343 0-111.708427 96.013151c-8.803658 7.615323-9.754814 20.940009-2.130977 29.785022 7.626269 8.789063 21.028799 9.796168 29.832458 2.127328l112.546466-96.740505 112.491732 96.740505c8.860825 7.66884 22.207405 6.661735 29.834891-2.127328 7.68222-8.845013 6.672682-22.170915-2.133409-29.785022l-111.703562-96.013151 97.85343 0c11.721588 0 21.197867-9.516417 21.197867-21.217328s-9.476278-21.162594-21.197867-21.162594L538.04 194.68363799999997 538.04 194.68363799999997zM805.640566-124.25254600000005L228.025457-124.25254600000005c-65.312247 0-118.448006 53.121163-118.448006 118.41395L109.577451 384.256642c0 65.311031 53.135759 118.44679 118.448006 118.44679L805.605293 502.703432c65.312247 0 118.448006-53.135759 118.448006-118.44679l0-390.061181C924.052083-71.11678700000004 870.932136-124.25254600000005 805.640566-124.25254600000005zM228.025457 438.918871c-30.141401 0-54.662229-24.520828-54.662229-54.661013l0-390.094022c0-30.123156 24.520828-54.629389 54.662229-54.629389l577.615109 0c30.120724 0 54.626956 24.520828 54.626956 54.662229L860.267522 384.256642c0 30.140185-24.520828 54.661013-54.662229 54.661013L228.025457 438.917654z"  horiz-adv-x="1024" />

    
    <glyph glyph-name="present" unicode="&#58903;" d="M860.264 820.836h-699.941c-53.69 0-97.214-43.524-97.214-97.214v-699.941c0-53.69 28.175-97.214 81.864-97.214h699.941c53.69 0 112.564 43.524 112.564 97.214v699.941c0 53.69-43.524 97.214-97.214 97.214zM475.218 691.456c22.086-23.821 47.418-53.482 75.999-88.99l-44.82-31.179c-25.983 36.806-49.367 67.118-70.153 90.938l38.974 29.231zM365.443 405.65h194.218c0.863 9.094 1.3 45.251 1.3 108.477l-171.485 0v45.47h222.799c42.434 52.828 72.964 97.215 91.588 133.16l51.965-31.829c-17.756-22.521-46.336-56.298-85.742-101.331h135.108v-45.47h-193.569c0-54.132-0.218-90.288-0.65-108.477h209.807v-45.47l-214.354 0c-0.868-11.261-2.598-22.085-5.196-32.478 68.416-45.039 134.89-91.157 199.415-138.356l-34.427-44.17c-66.692 52.396-127.101 97.647-181.228 135.758-29.448-60.628-87.477-108.695-174.083-144.202-11.692 15.153-23.385 28.794-35.076 40.922 111.288 44.17 171.048 105.010 179.279 182.526l-189.671 0v45.47zM253.718 684.312c32.042-37.674 65.387-79.896 100.032-126.664l-46.768-31.179c-28.149 43.302-59.328 86.173-93.536 128.613l40.272 29.23zM812.34 65.931c-154.163-1.3-273.251-1.082-357.259 0.65-78.383 2.166-133.16 27.281-164.339 75.349-12.56-9.956-37.893-37.674-75.999-83.144l-27.931 55.212c26.845 24.251 53.695 47.85 80.545 70.802l-0 226.696h-74.050v47.418h124.715v-284.507c30.742-38.106 77.728-58.46 140.954-61.059 95.699-1.73 220.633-0.863 374.796 2.598-7.362-17.32-14.507-33.99-21.434-50.016z"  horiz-adv-x="1024" />

    
    <glyph glyph-name="service" unicode="&#58907;" d="M144 396.8c3.2 0 3.2 0 0 0 3.2-16 0 0 0 0zM96 336v0c35.2 0 57.6 25.6 51.2 57.6 0 0 0 3.2 0 3.2-3.2 19.2-6.4 41.6-6.4 60.8 0 204.8 166.4 371.2 371.2 371.2s371.2-166.4 371.2-371.2c0-22.4-3.2-41.6-6.4-60.8 0 0 0-3.2 0-3.2-6.4-32 12.8-57.6 44.8-57.6 0 0 3.2 0 3.2 0 60.8 6.4 80 60.8 80 124.8 0 64-16 118.4-80 124.8-54.4 179.2-220.8 310.4-416 310.4s-361.6-131.2-416-310.4c-60.8-6.4-80-60.8-80-124.8 3.2-64 19.2-115.2 83.2-124.8zM876.8 396.8c3.2 0 3.2 0 0 0 3.2 0 0-16 0 0zM812.8 182.4l-38.4 25.6-35.2-32c-60.8-54.4-140.8-86.4-227.2-86.4s-166.4 32-227.2 86.4l-35.2 32-38.4-25.6c-99.2-60.8-166.4-150.4-188.8-252.8-3.2-19.2-3.2-25.6-3.2-25.6 0-16 9.6-32 28.8-32 16 0 32 12.8 35.2 32 0 0 0 9.6 6.4 28.8 22.4 80 76.8 150.4 156.8 198.4 70.4-64 166.4-102.4 268.8-102.4s198.4 38.4 268.8 102.4c76.8-48 134.4-118.4 156.8-198.4 6.4-19.2 6.4-28.8 6.4-28.8 3.2-16 16-32 35.2-32 16 0 28.8 12.8 28.8 32 0 0 0 9.6-3.2 28.8-28.8 99.2-96 188.8-195.2 249.6zM512 771.2c-172.8 0-310.4-137.6-310.4-310.4s137.6-310.4 310.4-310.4 310.4 137.6 310.4 310.4c0 172.8-137.6 310.4-310.4 310.4zM512 214.4c-137.6 0-249.6 112-249.6 249.6s112 249.6 249.6 249.6 249.6-112 249.6-249.6c-3.2-140.8-112-249.6-249.6-249.6z"  horiz-adv-x="1024" />

    
    <glyph glyph-name="expire" unicode="&#58912;" d="M966.679 785.169c132.183 0 249.408-63.936 322.497-162.544l51.134-13.705c-76.35 126.521-215.099 211.138-373.631 211.138-76.593 0-148.553-19.767-211.113-54.449l51.033-13.676c49.033 21.36 103.169 33.233 160.079 33.233v0zM1230.095 807.855l28.006-22.687 8.623 34.023 31.348 18.297-31.348 18.316-8.623 34.012-28.006-22.687-36.667 2.71 14.036-32.351-14.036-32.334 36.667 2.7zM744.333 883.974l-28.801 20.041-6.286-35.481-29.476-21.995 31.793-15.235 10.577-33.635 25.927 26.082 36.029 1.202-15.77 31.338 11.691 34.377-35.684-6.698zM1013.982 933.008l-21.337 27.853-16.783-31.895-34.772-11.994 25.652-24.176-0.138-35.261 32.628 16.957 34.687-9.804-5.495 34.65 21.591 29.203-36.034 4.462zM1404.275 713.994l-30.242 20.935-4.299-34.994-28.501-20.755 32.99-16.272 12.62-33.745 24.678 24.941 36.294-0.119-17.713 31.675 9.81 33.693-35.637-5.359zM1797.059 450.416l-1516.301 406.301c-37.217 9.979-75.473-12.118-85.457-49.335l-108.345-404.343c-9.964-37.22 12.121-75.475 49.338-85.457l1516.319-406.282c37.217-9.966 75.473 12.121 85.456 49.329l108.326 404.351c9.973 37.213-12.121 75.461-49.335 85.437v0zM1808.192 357.138l-99.328-370.637c-7.463-27.916-36.158-44.48-64.065-37.007l-1482.623 397.249c-27.916 7.493-44.48 36.183-37.007 64.102l99.321 370.64c7.474 27.916 36.175 44.48 64.092 37.008l1482.601-397.247c27.925-7.482 44.49-36.187 37.013-64.113v0zM966.679 1011.923c290.594 0 535.044-197.414 606.645-465.439l38.61-10.341c-68.773 292.721-331.558 510.657-645.258 510.657-190.204 0-361.692-80.133-482.564-208.465l38.564-10.341c113.63 113.641 270.606 183.926 444 183.926v0zM1126.77 16.089c-49.043-21.382-103.162-33.255-160.090-33.255-132.172 0-249.406 63.947-322.495 162.547l-51.134 13.703c76.339-126.542 215.092-211.131 373.629-211.131 76.597 0 148.547 19.748 211.115 54.436l-51.025 13.697zM752.483-56.362l-27.772 22.66-8.56-33.939-31.093-18.256 31.093-18.293 8.56-33.939 27.772 22.66 36.374-2.719-13.926 32.292 13.926 32.257-36.374-2.72zM966.571-163.804l21.173-27.772 16.626 31.803 34.497 11.964-25.444 24.1 0.148 35.19-32.363-16.918-34.418 9.795 5.454-34.583-21.414-29.122 35.74-4.46zM525.6 55.468l28.436-22.951 6.725 34.513 29.659 18.654-31.483 18.508-10.121 34.482-26.174-23.104-35.91 2.661 15.295-32.766-12.074-32.844 35.645 2.848zM966.679-243.911c-290.592 0-535.040 197.428-606.644 465.447l-38.602 10.33c68.755-292.726 331.548-510.666 645.245-510.666 190.218 0 361.693 80.146 482.57 208.47l-38.558 10.336c-113.648-113.637-270.613-183.917-444.011-183.917v0zM1218.869-115.901l28.609-20.036 6.171 35.378 29.221 21.865-31.587 15.233-10.566 33.566-25.68-25.963-35.756-1.149 15.697-31.277-11.518-34.258 35.408 6.642zM658.63 559.114l-175.087 46.237-25.699 5.278 17.711 67.058 44.502-12.885 184.999-48.857 44.695-10.669-12.289-42.059-27.687-104.827-8.313-35.937-44.138 12.789-143.888 38-11.929-45.178c-2.919-11.062-3.38-18.239-1.37-21.538 2.006-3.303 4.953-5.783 8.835-7.431 3.882-1.654 13.653-4.549 29.315-8.686 52.733-14.433 83.698-22.547 92.913-24.35 9.203-1.802 15.725-1.637 19.566 0.497 3.835 2.135 7.129 6.175 9.878 12.116 2.746 5.94 4.93 11.974 6.543 18.096l3.828 15.978c31.159-18.8 54.384-30.471 69.677-35.013-9.645-22.625-16.914-38.515-21.814-47.66-4.908-9.149-10.582-16.523-17.034-22.122-6.45-5.595-14.98-9.382-25.578-11.365-10.605-1.981-23.188-1.3-37.748 2.041-14.564 3.345-65.366 16.637-152.42 39.875-23.249 6.138-39.619 13.291-49.111 21.466-9.492 8.169-15.043 17.373-16.658 27.616-1.612 10.245-0.963 20.894 1.958 31.953l38.775 146.825 5.051 23.586 73.781-19.484-5.756-15.845-3.92-16.331 114.891-30.342 13.515 51.171zM1117.886 238.855c-4.187-5.94-7.65-11.134-10.391-15.569-2.743-4.43-9.706-18.388-20.875-41.866-16.16 3.261-38.245 8.837-66.257 16.737l-62.035 16.386c-15.909 4.198-29.162 8.022-39.777 11.449-10.611 3.433-20.032 7.178-28.246 11.235-8.226 4.057-17.708 10.527-28.451 19.407-10.749 8.88-17.552 13.825-20.427 14.831-4.404 1.164-8.785 1.19-13.138 0.073-4.354-1.114-16.779-7.274-37.271-18.47-4.667 12.054-9.711 23.204-15.118 33.441l-9.584 17.254-4.192 7.903c14.48 7.251 34.322 15.477 59.525 24.678l21.438 81.184-23.494 6.202-22.762 4.502 16.032 60.706 23.213-7.264 53.226-14.055 34.046-7.86-9.955-33.243-28.24-106.943c9.87-12.174 20.036-20.772 30.491-25.794 10.451-5.028 30.71-12.074 60.777-21.15 30.060-9.072 56.442-16.226 79.142-21.466 22.698-5.241 43.471-9.345 62.321-12.307zM847.287 553.843c22.978 5.761 42.143 11.903 57.482 18.425 11.668-23.221 21.367-47.93 29.11-74.137-7.539-1.786-13.027-3.23-16.459-4.336l-24.375-9.042-18.299-5.364c-5.021 16.678-9.137 29.348-12.35 37.997-3.218 8.643-8.249 20.802-15.106 36.457zM1138.030 509.908l-8.283-26.887-6.151-23.296 40.289-9.506-15.939-60.352-39.636 11.979-26.75-101.293c-2.236-8.473-7.679-18.17-16.322-29.103-8.649-10.934-39.119-8.358-91.415 7.716 0.937 5.546 1.754 10.609 2.446 15.213 0.687 4.595 1.047 10.169 1.074 16.705 0.022 6.539-0.4 16.587-1.262 30.161 8.13-2.9 16.27-5.305 24.407-7.201 8.315-2.198 13.956-2.178 16.899 0.067 2.949 2.24 5.042 5.708 6.285 10.416l19.666 74.471-83.69 22.101-33.775 7.411 15.939 60.352 33.121-9.881 83.69-22.101 6.151 23.296 5.711 27.566 67.543-17.835zM927.038 415.737c27.696 4.766 46.969 8.863 57.827 12.291 11.436-34.988 17.728-55.276 18.871-60.863l2.706-13.549c-31.876-7.694-51.829-12.873-59.859-15.532-3.3 17.235-6.239 31.158-8.794 41.78-2.565 10.618-6.149 22.578-10.749 35.873zM1306.618 158.053c-9.265-4.349-22.084-9.77-38.455-16.272-8.245 23.321-13.601 37.705-16.095 43.14l-8.574 16.608c8.582 2.77 18.154 6.283 28.702 10.545l-51.756 13.668c3.105-4.094 9.756-10.633 19.951-19.614-15.977-12.896-29.241-22.731-39.798-29.509-10.562-6.775-22.343-13.479-35.349-20.114-7.361 12.768-17.861 29.012-31.5 48.72 14.034 4.601 24.495 8.761 31.369 12.481s15.036 9.11 24.495 16.186l-16.517 4.363-24.871 5.435 13.609 51.531 24.31-7.555 9.182-2.422 29.733 112.589-26.983 6.37 13.049 49.412 26.519-8.135 3.542 13.413 4.123 21.562 57.632-15.221-6.607-22.041-3.261-12.356 33.036-8.721 3.542 13.413 4.215 20.407 57.63-15.221-7.151-19.631-3.542-13.413 18.998-3.885-13.049-49.412-18.166 5.553-30.098-112.491 19.821-5.235c3.159 8.987 6.686 20.634 10.605 34.957 3.908 14.314 7.173 26.42 9.783 36.303l9.049 35.742 15.565 58.942 5.702 26.057 35.966-11.009 86.257-22.781 23.499-4.695-8.083-24.672-65.154-246.705c-4.598-17.411-11.822-27.898-21.659-31.472-9.845-3.563-18.865-5.269-27.070-5.119-8.208 0.154-23.087 1.566-44.629 4.236 0.876 5.305 1.477 9.555 1.794 12.739 0.317 3.188 0.694 9.819 1.13 19.901s0.567 16.783 0.4 20.097l-1.147 12.004c7.766-3.313 14.398-5.443 19.91-6.387 4.707-0.999 8.335-0.88 10.885 0.334 2.543 1.215 4.374 3.943 5.497 8.176l11.929 45.179-23.124 6.105c-8.649-18.859-17.379-36.317-26.194-52.359-8.819-16.038-25.246-35.867-49.282-59.474-17.994 18.093-36.158 33.585-54.476 46.48 9.137 4.876 16.192 9.302 21.17 13.274zM1251.109 270.5l32.665-8.623 2.7 10.235-32.665 8.623-2.7-10.235zM1265.275 324.148l32.665-8.623 2.329 8.819-32.665 8.628-2.329-8.823zM1278.419 373.914l32.665-8.623 2.236 8.468-32.665 8.628-2.236-8.473zM1318.416 168.53c4.607 4.572 8.977 9.709 13.105 15.419l4.528 6.731 2.583 3.85-35.605 9.404c1.023-3.044 3.47-8.91 7.328-17.603 3.85-8.701 6.539-14.623 8.060-17.801zM1428.908 261.3l23.124-6.105 6.525 24.708-23.124 6.105-6.525-24.708zM1448.852 336.834l23.124-6.105 5.499 20.821-23.124 6.105-5.499-20.821z"  horiz-adv-x="1812" />

    
    <glyph glyph-name="mall" unicode="&#58962;" d="M97.94 808.031h828.123l70.7-300.377h-969.52l70.7 300.377zM121.504 543.236c52.034 0 94.242-15.954 94.242-35.632 0-19.655-42.208-35.586-94.242-35.586-52.058 0-94.266 15.93-94.266 35.586 0 19.701 42.208 35.632 94.266 35.632zM310.014 543.236c52.034 0 94.266-15.954 94.266-35.632 0-19.655-42.23-35.586-94.266-35.586-52.058 0-94.266 15.93-94.266 35.586 0 19.701 42.208 35.632 94.266 35.632zM713.964 543.236c52.105 0 94.266-15.954 94.266-35.632 0-19.655-42.159-35.586-94.266-35.586-52.058 0-94.266 15.93-94.266 35.586 0 19.701 42.208 35.632 94.266 35.632zM902.496 543.236c52.058 0 94.266-15.954 94.266-35.632 0-19.655-42.208-35.586-94.266-35.586s-94.266 15.93-94.266 35.586c0 19.701 42.208 35.632 94.266 35.632zM512 543.236c52.058 0 94.266-15.954 94.266-35.632 0-19.655-42.208-35.586-94.266-35.586-52.058 0-94.266 15.93-94.266 35.586 0 19.701 42.208 35.632 94.266 35.632zM857.836 442.304h-714.53c-31.201 0-56.466-24.934-56.466-55.638v-371.006c0-30.754 25.263-55.664 56.466-55.664h281.029v223.834h190.652v-223.857h242.828c31.179 0 56.466 24.957 56.466 55.638v371.028c0.047 30.732-25.263 55.664-56.442 55.664zM331.364 293.529c0-20.48-16.851-37.070-37.634-37.070h-56.466c-20.786 0-37.634 16.59-37.634 37.070v37.14c0 20.48 16.851 37.093 37.634 37.093h56.466c20.786 0 37.634-16.615 37.634-37.093v-37.14z"  horiz-adv-x="1024" />

    
    <glyph glyph-name="ok" unicode="&#58881;" d="M745.267 579.072l-318.601-318.601-147.9 147.934c-13.005 13.005-34.133 13.005-47.138 0s-13.005-34.133 0-47.138l167.424-167.424c1.126-1.604 1.809-3.447 3.243-4.881 6.724-6.724 15.565-9.83 24.371-9.591 8.806-0.205 17.681 2.867 24.405 9.591 1.434 1.434 2.116 3.277 3.243 4.881l338.091 338.091c13.005 13.005 13.005 34.133 0 47.138-13.039 13.005-34.133 13.005-47.138 0zM512 930.133c-301.636 0-546.133-244.497-546.133-546.133s244.497-546.133 546.133-546.133c301.602 0 546.133 244.497 546.133 546.133 0 301.636-244.497 546.133-546.133 546.133zM512-93.867c-263.919 0-477.867 213.948-477.867 477.867s213.948 477.867 477.867 477.867c263.919 0 477.867-213.948 477.867-477.867 0-263.919-213.948-477.867-477.867-477.867z"  horiz-adv-x="1024" />

    
    <glyph glyph-name="already-use" unicode="&#58891;" d="M910.626 785.169c132.183 0 249.407-63.937 322.498-162.544l51.134-13.705c-76.35 126.521-215.101 211.139-373.63 211.139-76.596 0-148.556-19.767-211.114-54.449l51.033-13.676c49.031 21.361 103.167 33.233 160.078 33.233v0zM910.626 785.169zM1174.044 807.856l28.006-22.687 8.623 34.023 31.348 18.298-31.348 18.316-8.623 34.012-28.006-22.687-36.667 2.71 14.036-32.351-14.036-32.334 36.667 2.7zM1174.044 807.856zM688.279 883.978l-28.799 20.041-6.286-35.481-29.476-21.995 31.793-15.236 10.575-33.636 25.93 26.082 36.029 1.202-15.77 31.338 11.691 34.377-35.686-6.698zM688.279 883.978zM936.903 923.666l-21.337 27.853-16.783-31.895-34.771-11.994 25.652-24.176-0.138-35.262 32.626 16.957 34.687-9.804-5.495 34.653 21.591 29.203-36.034 4.462zM936.903 923.666zM1348.225 713.995l-30.242 20.935-4.299-34.994-28.501-20.755 32.99-16.272 12.62-33.745 24.678 24.941 36.294-0.119-17.713 31.675 9.81 33.694-35.637-5.359zM1348.225 713.995zM1741.012 450.414l-1516.307 406.302c-37.217 9.979-75.473-12.118-85.458-49.335l-108.346-404.346c-9.964-37.22 12.121-75.475 49.338-85.458l1516.325-406.286c37.217-9.966 75.473 12.121 85.456 49.33l108.326 404.354c9.973 37.217-12.121 75.463-49.335 85.439v0zM1752.143 357.137l-99.328-370.638c-7.463-27.918-36.159-44.48-64.065-37.007l-1482.63 397.251c-27.918 7.493-44.48 36.183-37.007 64.102l99.321 370.643c7.474 27.918 36.175 44.48 64.095 37.010l1482.605-397.249c27.925-7.483 44.49-36.187 37.013-64.113v0zM1752.143 357.137zM910.626 1011.924c290.593 0 535.044-197.415 606.649-465.443l38.611-10.341c-68.773 292.722-331.559 510.659-645.26 510.659-190.205 0-361.693-80.134-482.57-208.466l38.564-10.341c113.632 113.637 270.609 183.927 444.005 183.927v0zM910.626 1011.924zM1070.718 16.086c-49.044-21.382-103.162-33.255-160.090-33.255-132.172 0-249.409 63.947-322.496 162.548l-51.136 13.703c76.343-126.543 215.093-211.132 373.634-211.132 76.597 0 148.547 19.748 211.115 54.437l-51.025 13.697zM1070.718 16.086zM696.431-56.365l-27.772 22.66-8.56-33.939-31.093-18.256 31.093-18.293 8.56-33.939 27.772 22.66 36.374-2.719-13.926 32.292 13.926 32.257-36.374-2.72zM696.431-56.365zM910.519-163.807l21.173-27.772 16.626 31.805 34.497 11.964-25.444 24.1 0.148 35.19-32.363-16.918-34.418 9.795 5.45-34.583-21.412-29.122 35.741-4.46zM910.519-163.807zM469.546 55.466l28.439-22.953 6.725 34.513 29.657 18.654-31.483 18.508-10.121 34.484-26.174-23.104-35.91 2.661 15.295-32.766-12.074-32.847 35.646 2.848zM469.546 55.466zM910.626-243.916c-290.595 0-535.044 197.428-606.646 465.449l-38.602 10.33c68.755-292.729 331.551-510.669 645.251-510.669 190.214 0 361.696 80.146 482.57 208.471l-38.558 10.336c-113.648-113.637-270.614-183.92-444.013-183.92v0zM910.626-243.916zM1162.817-115.904l28.61-20.036 6.171 35.378 29.221 21.865-31.587 15.233-10.566 33.566-25.68-25.963-35.756-1.149 15.697-31.277-11.518-34.258 35.408 6.642zM1162.817-115.904zM608.299 557.295l-174.606 48.022-25.648 5.539 18.394 66.877 44.368-13.341 184.491-50.741 44.582-11.125-12.714-41.935-28.753-104.54-8.681-35.85-44.001 13.239-143.492 39.463-12.391-45.053c-3.035-11.031-3.57-18.204-1.59-21.521 1.972-3.325 4.895-5.829 8.761-7.52 3.863-1.697 13.606-4.689 29.223-8.987 52.582-14.969 83.466-23.399 92.659-25.296 9.188-1.899 15.712-1.802 19.571 0.295 3.856 2.094 7.19 6.096 9.999 12.016 2.809 5.915 5.051 11.922 6.73 18.026l3.989 15.939c30.969-19.118 54.073-31.026 69.318-35.722-9.877-22.529-17.306-38.343-22.3-47.439-4.999-9.1-10.752-16.409-17.258-21.948-6.509-5.529-15.075-9.229-25.693-11.105-10.62-1.873-23.197-1.062-37.722 2.422-14.529 3.495-65.195 17.302-152.007 41.426-23.188 6.378-39.483 13.701-48.886 21.963-9.409 8.266-14.866 17.53-16.378 27.79-1.509 10.26-0.746 20.902 2.288 31.93l40.271 146.42 5.293 23.534 73.577-20.237-5.918-15.788-4.090-16.293 114.573-31.509 14.041 51.039zM810.004 279.961l-2.033-7.392-10.518-42.537-62.959 17.317 12.597 40.073 27.687 100.666c-3.655-2.781-7.617-5.733-11.883-8.847-4.72 21.988-11.779 44.509-21.193 67.539 24.544 16.72 43.83 33.626 57.853 50.722 14.015 17.090 23.951 30.068 29.806 38.939 5.844 8.861 12.963 21.356 21.333 37.481 9.703-6.71 28.805-17.897 57.313-33.555-4.133-6.436-7.554-12.189-10.256-17.245l38.145-11.628 30.382-8.356 7.324 30.926 62.23-17.115-9.522-30.321 45.395-12.485 46.778-11.729-14.523-52.798-46.099 14.194-45.758 12.585-2.804-10.208 32.58-8.959 47.242-11.481-13.759-44.294-9.972-36.255-11.413-47.217-57.47 15.807 3.269 10.461-23.792 6.543c-1.346-3.925-2.64-7.669-3.878-11.239-1.245-3.571-3.175-7.961-5.791-13.174-2.614-5.211-6.439-12.174-11.453-20.889 5.501-4.796 17.279-12.077 35.335-21.831 18.053-9.759 39.735-18.249 65.052-25.463-10.819-11.658-18.427-20.231-22.82-25.716-4.4-5.476-10.25-13.396-17.559-23.755-29.627 14.459-51.375 25.807-65.251 34.035-13.879 8.236-26.905 17.435-39.069 27.595-13.488-5.119-26.345-8.212-38.576-9.266-12.235-1.047-30.103-0.868-53.599 0.543-0.481 4.93-1.585 13.565-3.31 25.901-1.725 12.338-3.010 20.078-3.856 23.209-0.843 3.142-1.243 6.214-1.201 9.23zM842.955 336.774l14.164 47.214 9.584 34.845 11.196 45.004 46.469-14.295 25.625-7.046 2.809 10.208-30.751 8.453-45.314 11.326 9.1 33.086c-9.127-13.142-16.885-24.637-23.266-34.487l-51.498-187.25c20.997-4.762 33.399-6.913 37.207-6.446l13.877 0.346c-9.636 11.735-17.269 22.163-22.896 31.285 17.204 4.352 32.715 9.677 46.527 15.977l-42.832 11.781zM901.669 331.226l-1.98-10.057-1.462 0.402c3.295-5.201 6.861-10.347 10.715-15.44 4.154 8.446 6.586 13.456 7.284 15.036l1.916 5.531-16.473 4.529zM932.063 375.87l4.259 15.487-16.839 4.629-4.256-15.487 16.838-4.629zM994.89 375.249l-4.261-15.487 22.698-6.242 4.261 15.487-22.698 6.242zM1069.031 192.439c17.081 12.473 30.4 25.584 39.963 39.363 9.565 13.775 17.44 28.577 23.641 44.422 6.181 15.838 10.609 28.565 13.257 38.19l32.721 118.969 8.775 36.203 41.44-12.531 229.147-63.026 35.431-8.608-11.361-37.007-62.34-226.672c-3.099-11.262-6.279-19.723-9.54-25.392-3.265-5.662-8.315-10.396-15.132-14.199-6.822-3.804-17.671-4.605-32.553-2.406-14.885 2.203-33.379 5.586-55.482 10.151 0.516 6.673 1.119 14.335 1.794 22.982 0.666 8.652 0.041 22.832-1.885 42.542 23.687-9.297 36.864-13.169 39.524-11.63 2.652 1.546 5.787 8.88 9.401 22.023l6.292 22.877-48.32 13.289-16.555-60.188-8.945-35.399-69.919 19.23 10.78 34.895 16.551 60.188-49.053 13.489c-4.841-9.017-9.322-17.187-13.431-24.507-4.123-7.328-10.501-16.929-19.148-28.81-8.646-11.875-15.52-20.397-20.615-25.563l-19.2-19.71c-18.364 21.966-36.775 40.91-55.237 56.836zM1267.019 298.132l-45.755 12.585-6.099-22.174 45.758-12.585 6.097 22.174zM1288.508 376.271l-45.755 12.585-6.193-22.529 45.755-12.585 6.193 22.529zM1383.424 266.118l-47.952 13.19-6.099-22.175 47.952-13.188 6.099 22.174zM1404.912 344.257l-48.32 13.289-5.731-22.278 47.952-13.188 6.099 22.177z"  horiz-adv-x="1812" />

    
    <glyph glyph-name="c" unicode="&#58921;" d="M692.9712362666667-60.993408000000045L334.94197973333337-60.993408000000045c-51.55254826666667 0-99.59433386666666 27.73930346666667-125.3727488 72.38592533333333L30.558885333333365 321.44849066666677c-25.78697706666667 44.65090346666667-25.78697706666667 100.12522986666666 0 144.77185066666667l179.01462826666665 310.06025493333334c25.774133333333335 44.65090346666667 73.82020053333333 72.38164373333333 125.3727488 72.38164373333333l358.0292565333333 0c51.55254826666667 0 99.59433386666666-27.73074133333333 125.3727488-72.38164373333333l179.01462826666665-310.06025493333334c25.78697706666667-44.65090346666667 25.78697706666667-100.12522986666666 0-144.77185066666667l-179.01462826666665-310.0559733333333C792.5698506666666-33.25410453333325 744.5237834666666-60.993408000000045 692.9712362666667-60.993408000000045zM334.94197973333337 812.1417482666666c-38.54560213333333 0-74.4624128-20.73918613333333-93.7459168-54.1213984l-179.01462826666665-310.06025493333334c-19.270660266666667-33.38649386666667-19.270660266666667-74.86486613333334 0-108.25136l179.01462826666665-310.0559733333333c19.283504-33.38649386666667 55.20031573333333-54.12568 93.7459168-54.12568l358.0292565333333 0c38.54560213333333 0 74.4624128 20.73918613333333 93.7459168 54.12568l179.01462826666665 310.0559733333333c19.270660266666667 33.38649386666667 19.270660266666667 74.86486613333334 0 108.25136l-179.01462826666665 310.06025493333334c-19.283504 33.37793066666667-55.20031573333333 54.1213984-93.7459168 54.1213984L334.94197973333337 812.1417482666666zM527.3057105777777 256.24250240000003c48.9494464 0 88.9635744 19.3691328 120.0381024 58.103116799999995l63.84877866666667-65.7668544c-50.653450666666664-57.0413248-110.353536-85.55984746666667-179.100256-85.55984746666667-68.74672106666667 0-125.359904 21.70678613333333-169.8395498666667 65.12464106666667-44.483927466666664 43.41785493333333-66.72160960000001 98.21999893333333-66.72160960000001 164.41499413333335s22.665824 121.42099946666667 68.0017536 165.69085653333335c45.3359296 44.26985706666667 100.77600533333333 66.40478506666666 166.32878826666666 66.40478506666666 73.21652053333334 0 134.5092928-27.880590933333334 183.88688106666666-83.64177173333333l-61.9349856-70.23665386666667c-31.498388266666666 39.16212586666666-70.66051413333332 58.741047466666664-117.482096 58.741047466666664-37.4581216 0-69.48740586666666-12.2362912-96.0921344-36.713155199999996-26.604728533333333-24.476864-39.907092266666666-57.46518506666666-39.907092266666666-98.96924693333334 0-41.504060800000005 12.557397333333334-74.80920746666668 37.672192-99.9240032C461.11499591111107 268.7956181333334 491.5515932444444 256.24250240000003 527.3057105777777 256.24250240000003L527.3057105777777 256.24250240000003 527.3057105777777 256.24250240000003zM353.0928471332698 384.03234893077985l0.14130996697124118 7.637065956633364e-17 1.909266489158341e-17-0.03165147732931238-0.14130996697124118-7.637065956633364e-17-1.909266489158341e-17 0.03165147732931238ZM353.14767997336855 384.0871745821143l0.03165147732931238 1.909266489158341e-17 7.637065956633364e-17-0.14130996697124118-0.03165147732931238-1.909266489158341e-17-7.637065956633364e-17 0.14130996697124118ZM353.0888652337689 384.03234893077985l0.14130996697124118 7.637065956633364e-17 1.909266489158341e-17-0.03165147732931238-0.14130996697124118-7.637065956633364e-17-1.909266489158341e-17 0.03165147732931238ZM353.14369088331193 384.0871745821143l0.03165147732931238 1.909266489158341e-17 7.637065956633364e-17-0.14130996697124118-0.03165147732931238-1.909266489158341e-17-7.637065956633364e-17 0.14130996697124118Z"  horiz-adv-x="1024" />

    
    <glyph glyph-name="menu-message" unicode="&#59328;" d="M924.096 852.928L99.84 852.928C44.736 852.928 0 808.192 0 753.024l0-613.504c0-55.104 44.736-99.776 99.84-99.776l262.592 0 141.12-124.608 140.992 124.608 279.616 0c55.104 0 99.904 44.608 99.904 99.776L1024.064 753.024C1024 808.192 979.264 852.928 924.096 852.928zM694.72 326.592L329.28 326.592c-20.032 0-36.288 16.256-36.288 36.288s16.256 36.288 36.288 36.288l365.504 0c20.032 0 36.288-16.256 36.288-36.288S714.816 326.592 694.72 326.592zM794.624 516.992L229.312 516.992c-20.032 0-36.288 16.256-36.288 36.288S209.28 589.568 229.312 589.568l565.312 0c20.096 0 36.352-16.256 36.352-36.288S814.72 516.992 794.624 516.992z"  horiz-adv-x="1025" />

    
    <glyph glyph-name="down-app" unicode="&#58896;" d="M234.125 799.85c0 50.962 41.798 92.275 93.079 92.275h369.947c51.407 0 93.079-41.23 93.079-92.275v-834.977c0-50.963-41.798-92.274-93.079-92.274h-369.947c-51.407 0-93.079 41.229-93.079 92.274v834.977zM512.179-73.743c34.55 0 62.562 28.027 62.562 62.602 0 34.573-28.011 62.602-62.562 62.602-34.551 0-62.561-28.029-62.561-62.602-0.001-34.574 28.010-62.602 62.561-62.602zM280.467 104.307h463.422v648.79h-463.422v-648.79zM373.152 428.703l139.025-185.369 139.027 185.369h-92.685v139.026h-92.684v-139.026l-92.684-0.001z"  horiz-adv-x="1024" />

    
    <glyph glyph-name="phone" unicode="&#59123;" d="M698.3081654044445 892.2555403377778H325.69066951111114c-46.6323456 0-84.69897216000001-38.15511267555556-84.69897216000001-84.69547918222221v-847.1154653866666c0-46.58577407999999 38.06779050666667-84.69897216000001 84.69897216000001-84.69897216000001h372.6174958933333c46.59043100444445 0 84.70013610666666 38.11319808 84.70013724444443 84.69897216000001V807.5600611555556c0 46.54036650666666-38.10970510222222 84.69547918222221-84.70013724444443 84.69547918222221z m-237.13662975999998-67.73868544h101.6569287111111c9.358603377777776 0 17.002200177777777-7.598189226666666 17.002201315555556-16.95795768888889 0-9.408667875555555-7.642432853333333-16.95795768888889-17.002201315555556-16.95795768888889h-101.6569287111111c-9.317853866666667 0-16.868306488888887 7.549288675555556-16.868307626666667 16.95795768888889 0 9.359768462222224 7.549288675555556 16.95795768888889 16.868307626666667 16.95795768888889z m50.78422072888888-914.8576449422222c-28.040881493333334 0-50.826136462222216 22.700260693333334-50.826135324444444 50.78538581333333s22.785253831111113 50.87154403555555 50.826135324444444 50.87154403555555c28.17244728888889 0 50.87154403555555-22.786418915555554 50.87154403555555-50.87154403555555s-22.69793166222222-50.78538581333333-50.87154403555555-50.78538581333333z m237.26936063999997 135.48435797333332H274.9052836977778V722.8599250488888h474.3198333155555v-677.71635712z"  horiz-adv-x="1024" />

    
    <glyph glyph-name="fail" unicode="&#58883;" d="M1055.707 384.122c0 4.127 0 8.374-0.122 12.5 0 0.242 0 0.485 0 0.85-0.122 4.005-0.242 8.131-0.485 12.137 0 0.364 0 0.85 0 1.214-0.242 4.005-0.485 7.888-0.729 11.893 0 0.485 0 0.971-0.122 1.334-0.242 3.884-0.607 7.767-0.971 11.651 0 0.485-0.122 0.971-0.122 1.578-0.364 3.884-0.85 7.646-1.214 11.53-0.122 0.485-0.122 1.092-0.242 1.578-0.485 3.762-0.971 7.524-1.456 11.286-0.122 0.607-0.122 1.214-0.242 1.821-0.485 3.762-1.092 7.404-1.699 11.165-0.122 0.607-0.242 1.334-0.364 1.942-0.607 3.641-1.334 7.282-1.942 10.801-0.122 0.729-0.242 1.456-0.485 2.185-0.729 3.519-1.456 7.039-2.185 10.559-0.242 0.85-0.364 1.699-0.607 2.548-0.729 3.398-1.578 6.796-2.306 10.073-0.242 0.971-0.485 1.942-0.729 2.913-0.85 3.277-1.578 6.432-2.548 9.588-0.364 1.092-0.607 2.306-0.971 3.398-0.85 2.913-1.578 5.825-2.427 8.738-0.364 1.456-0.85 2.913-1.334 4.247-0.729 2.427-1.456 4.854-2.306 7.282-0.607 1.942-1.214 3.762-1.821 5.703-0.729 2.063-1.456 4.127-2.063 6.311-0.729 2.185-1.456 4.247-2.306 6.432-0.729 1.942-1.334 3.884-2.063 5.825-0.85 2.185-1.699 4.369-2.548 6.554-0.729 1.942-1.456 3.884-2.306 5.825-0.364 1.092-0.85 2.063-1.214 3.155-0.364 0.85-0.729 1.699-1.092 2.548-0.607 1.456-1.214 3.035-1.821 4.491-0.242 0.607-0.485 1.092-0.729 1.699-1.334 3.035-2.67 6.068-4.005 8.98-0.364 0.85-0.729 1.699-1.092 2.427-1.578 3.398-3.155 6.796-4.733 10.194-0.242 0.364-0.364 0.85-0.607 1.214-1.821 3.762-3.641 7.404-5.461 11.044 0 0.122-0.122 0.242-0.122 0.242-25.729 50.366-59.104 96.362-99.76 137.019-34.467 34.467-72.697 63.594-114.081 87.381v0c-3.641 2.063-7.404 4.127-11.165 6.19-0.122 0.122-0.242 0.122-0.364 0.242-3.641 1.942-7.282 3.884-11.044 5.825-0.242 0.122-0.485 0.242-0.729 0.364-3.641 1.821-7.282 3.641-11.044 5.461-0.242 0.122-0.485 0.242-0.85 0.364-3.762 1.821-7.404 3.519-11.165 5.219-0.242 0.122-0.485 0.242-0.729 0.364-3.884 1.699-7.767 3.398-11.651 5.098 0 0 0 0-0.122 0s-0.122 0-0.242 0.122c-2.306 0.971-4.491 1.942-6.796 2.913-5.703 2.306-11.53 4.491-17.355 6.675-0.729 0.242-1.456 0.485-2.185 0.729-3.155 1.214-6.432 2.306-9.588 3.398-1.334 0.485-2.548 0.85-3.884 1.334-2.67 0.85-5.34 1.699-8.010 2.548-1.699 0.485-3.398 1.092-5.098 1.578-2.306 0.729-4.611 1.456-6.917 2.063-1.942 0.607-3.884 1.092-5.947 1.699s-4.127 1.092-6.311 1.699-4.369 1.092-6.432 1.699c-1.942 0.485-3.884 0.971-5.825 1.456-2.306 0.607-4.611 1.092-6.917 1.578-1.821 0.364-3.519 0.85-5.34 1.214-2.427 0.485-4.976 1.092-7.404 1.578-1.942 0.364-3.884 0.729-5.825 1.092-2.306 0.485-4.611 0.85-7.039 1.334-2.063 0.364-4.247 0.729-6.311 1.092-0.485 0.122-0.85 0.122-1.334 0.242-28.277 4.247-57.283 6.554-86.653 6.554-70.634 0-139.568-13.471-204.618-39.807-2.306-0.971-4.611-1.942-6.796-2.913-0.122 0-0.122 0-0.242-0.122 0 0 0 0-0.122 0-64.565-27.307-122.698-66.265-172.7-116.387-24.88-25.001-47.089-51.822-66.507-80.586-0.122-0.122-0.242-0.364-0.364-0.485-2.185-3.277-4.369-6.554-6.554-9.952-0.242-0.364-0.485-0.85-0.85-1.214-1.942-3.155-4.005-6.311-5.825-9.467-0.364-0.607-0.729-1.334-1.214-1.942-1.821-3.035-3.519-5.947-5.34-8.98-0.485-0.85-0.971-1.699-1.456-2.548-1.578-2.791-3.277-5.703-4.733-8.617-0.607-1.092-1.092-2.063-1.699-3.155-1.456-2.791-2.913-5.461-4.369-8.253-0.607-1.214-1.214-2.427-1.821-3.641-1.334-2.67-2.67-5.34-4.005-8.010-0.607-1.334-1.334-2.67-1.942-4.005-1.214-2.67-2.427-5.219-3.641-7.888-0.607-1.334-1.214-2.791-1.942-4.127-1.214-2.67-2.427-5.34-3.519-8.010-0.242-0.607-0.485-1.214-0.729-1.821-0.607-1.456-1.214-3.035-1.821-4.491-0.364-0.85-0.729-1.699-1.092-2.548-0.364-0.971-0.729-1.821-1.092-2.791-1.092-2.548-2.063-5.219-3.035-7.767-0.364-1.092-0.85-2.185-1.214-3.277-1.214-3.277-2.427-6.675-3.641-9.952-0.122-0.364-0.242-0.85-0.485-1.214-1.334-3.884-2.67-7.646-3.884-11.53-0.122-0.242-0.122-0.364-0.242-0.607-1.334-4.005-2.548-8.010-3.762-11.893 0-0.242-0.122-0.364-0.122-0.607-1.214-4.005-2.306-7.888-3.398-11.893-0.122-0.242-0.122-0.485-0.242-0.729-1.092-3.884-2.063-7.888-3.035-11.773-0.122-0.364-0.122-0.607-0.242-0.971-0.971-3.884-1.821-7.767-2.67-11.53-0.122-0.485-0.242-0.85-0.242-1.334-0.85-3.762-1.578-7.524-2.306-11.408-0.122-0.485-0.242-1.092-0.364-1.578-0.729-3.762-1.456-7.404-2.063-11.165-0.122-0.607-0.242-1.214-0.364-1.821-0.607-3.641-1.214-7.404-1.699-11.044-0.122-0.607-0.242-1.334-0.242-1.942-0.485-3.641-0.971-7.282-1.456-11.044-0.122-0.729-0.122-1.334-0.242-2.063-0.485-3.641-0.85-7.404-1.214-11.044-0.122-0.607-0.122-1.334-0.242-1.942-0.364-3.762-0.729-7.524-0.971-11.165 0-0.607-0.122-1.214-0.122-1.821-0.242-3.884-0.485-7.646-0.729-11.53 0-0.485 0-0.971-0.122-1.456-0.242-4.005-0.364-8.010-0.485-11.893 0-0.242 0-0.607 0-0.85-0.122-4.127-0.122-8.253-0.122-12.5v-0.122c0-70.634 13.471-139.446 39.807-204.496 25.244-62.138 61.289-118.45 107.406-167.481 0.122-0.122 0.122-0.242 0.242-0.364 0.242-0.242 0.485-0.485 0.729-0.729 2.306-2.427 4.611-4.854 7.039-7.282 0.85-0.85 1.578-1.699 2.427-2.427 0.607-0.607 1.092-1.092 1.699-1.699 0.242-0.242 0.485-0.485 0.85-0.729 47.574-47.453 102.795-85.075 164.082-112.261 63.715-28.035 131.072-43.449 200.735-45.875 0.607 0 1.334-0.122 1.942-0.122 33.010-0.971 65.658 0.971 97.697 5.825 0.485 0.122 0.971 0.122 1.456 0.242 1.578 0.242 3.035 0.485 4.611 0.729 1.092 0.122 2.185 0.364 3.277 0.485 0.971 0.122 1.821 0.364 2.791 0.485 1.699 0.242 3.398 0.607 5.219 0.971 0.242 0 0.485 0.122 0.729 0.122 38.593 7.039 76.337 18.326 112.867 33.618 64.807 27.428 122.819 66.507 172.82 116.509 50.002 50.002 89.202 108.134 116.509 172.82 23.18 54.977 37.137 112.625 41.385 172.093v0c0.364 4.369 0.607 8.617 0.729 12.986 0 0.122 0 0.242 0 0.364 0.242 4.247 0.364 8.496 0.485 12.865 0 0.122 0 0.242 0 0.485 0.122 4.247 0.122 8.496 0.122 12.865v0c0-0.485 0-0.364 0-0.364zM968.082 248.801c-15.17-51.458-39.079-100.003-70.876-143.815-14.685-20.268-31.069-39.443-49.030-57.405-27.914-27.914-58.619-51.822-91.629-71.726-0.485-0.364-1.092-0.607-1.578-0.971-2.427-1.456-4.854-2.913-7.404-4.247-1.699-0.971-3.277-1.942-4.976-2.791-1.334-0.729-2.791-1.578-4.127-2.306-17.598-9.467-35.803-17.962-54.735-25.244-18.326-7.161-36.895-13.107-55.827-17.84-37.501-9.345-76.459-14.199-116.144-14.199-66.87 0-131.314 13.593-192.117 40.535-53.885 23.666-102.188 56.798-143.937 98.426-0.122 0.122-0.242 0.242-0.242 0.364-89.808 89.808-139.446 209.351-139.325 336.297 0.242 127.067 49.637 246.489 139.446 336.297 41.628 41.628 89.808 74.638 141.995 98.062 43.449 19.419 89.687 32.283 137.504 37.866 18.69 2.185 37.622 3.398 56.798 3.277 127.067 0 246.61-49.394 336.297-139.203 8.98-8.98 17.476-18.205 25.607-27.67 73.546-86.047 113.717-194.302 113.717-308.626 0-46.361-6.675-91.75-19.419-135.077zM728.633 133.386c-8.738 0-17.355 3.277-24.030 9.952l-433.266 433.266c-13.229 13.229-13.229 34.831 0 48.060s34.831 13.229 48.060 0l433.266-433.266c13.229-13.229 13.229-34.831 0-48.060-6.675-6.675-15.292-9.952-24.030-9.952zM295.367 133.386c-8.738 0-17.355 3.277-24.030 9.952-13.229 13.229-13.229 34.831 0 48.060l433.266 433.266c13.229 13.229 34.831 13.229 48.060 0s13.229-34.831 0-48.060l-433.266-433.266c-6.675-6.675-15.413-9.952-24.030-9.952z"  horiz-adv-x="1024" />

    
    <glyph glyph-name="coupon" unicode="&#58892;" d="M1165.587 602.926s-30.234 32.535-30.234 49.035 10.284 23.402 10.284 23.402h-995.491c-82.912 0-150.118-62.249-150.118-139.026v-525.296c0-76.791 67.206-139.040 150.118-139.040h997.764s-12.187 28.769-12.557 44.421c-0.411 16.487 30.234 49.035 30.234 49.035v49.035s-30.234 32.535-30.234 49.035 30.234 49.035 30.234 49.035v49.035s-30.234 32.549-30.234 49.035c0 16.5 30.234 49.049 30.234 49.049v49.021s-30.234 32.549-30.234 49.035c0 16.514 30.234 49.035 30.234 49.035v49.049s-30.234 32.535-30.234 49.035 30.234 49.035 30.234 49.035v49.035zM591.338 122.858h-0.068v-0.37h-118.281v-103.876h-0.822c0.444-2.009 0.699-4.316 0.699-6.682 0-17.813-14.425-32.258-32.231-32.288-17.819 0.042-32.245 14.494-32.245 32.316 0 2.357 0.252 4.655 0.731 6.868l-0.751-0.213v103.876h-121.91v0.37c-14.179 0.031-25.661 11.532-25.661 25.716 0 0.019 0 0.039 0 0.058-0 0.009-0 0.024-0 0.038 0 14.189 11.479 25.696 25.657 25.743l0.004 0.342h121.91v72.259h-121.91v0.383c-14.179 0.031-25.661 11.532-25.661 25.716 0 0.019 0 0.039 0 0.058-0 14.238 11.489 25.781 25.661 25.781h102.699l-109.901 206.041 0.164 0.082c-3.491 5.136-5.573 11.473-5.573 18.297 0 0.018 0 0.036 0 0.054-0 0.022-0 0.051-0 0.079 0 18.068 14.624 32.721 32.681 32.768 14.232 0 26.213-9.188 30.704-21.936h0.246s98.18-184.351 104.369-200.111h1.328c4.409 12.652 99.932 200.111 99.932 200.111h0.233c4.686 12.871 16.802 21.903 31.032 21.936 18.282-0.054 33.095-14.9 33.095-33.206 0-7.417-2.432-14.266-6.541-19.793l0.090 0.075-110.463-204.397h100.768c14.172 0 25.661-11.543 25.661-25.784 0-0.012 0-0.027 0-0.041 0-14.189-11.479-25.696-25.657-25.743l-0.059 0.014v-0.383h-118.281v-72.245h118.281v-0.356h0.055c14.172 0 25.661-11.543 25.661-25.784 0-0.020 0-0.044 0-0.069 0-14.176-11.476-25.671-25.644-25.702zM870.308 13.272c0-16.076-15.788-29.125-35.26-29.125-19.485 0-35.26 13.050-35.26 29.125v43.476c0 16.062 15.788 29.112 35.26 29.112s35.26-13.050 35.26-29.112v-43.476zM870.308 173.783c0-16.076-15.788-29.112-35.26-29.112-19.485 0-35.26 13.036-35.26 29.112v43.476c0 16.076 15.788 29.112 35.26 29.112s35.26-13.036 35.26-29.112v-43.476zM870.308 334.294c0-16.076-15.788-29.112-35.26-29.112-19.485 0-35.26 13.036-35.26 29.112v43.476c0 16.076 15.788 29.112 35.26 29.112s35.26-13.036 35.26-29.112v-43.476zM870.308 494.819c0-16.076-15.788-29.112-35.26-29.112-19.485 0-35.26 13.036-35.26 29.112v43.476c0 16.076 15.788 29.112 35.26 29.112s35.26-13.036 35.26-29.112v-43.476zM242.3 720.139l29.454 77.955c8.914 18.746 43.626 35.452 68.466 25.976l272.562-103.931h203.48l-432.84 165.153c-77.503 29.577-162.318-4.628-189.445-76.408l-33.534-88.745h81.858z"  horiz-adv-x="1165" />

    
    <glyph glyph-name="alipay" unicode="&#58917;" d="M1023.652 194.719v503.788c0 108.595-88.131 196.726-196.797 196.726h-629.775c-108.595 0-196.726-88.131-196.726-196.726v-629.775c0-108.6 88.069-196.731 196.726-196.731h629.775c96.763 0 177.285 69.97 193.725 162.002-52.188 22.579-278.339 120.238-396.145 176.456-89.667-108.595-183.557-173.763-325.089-173.763s-235.996 87.168-224.676 193.848c7.485 70.031 55.516 184.509 264.141 164.874 109.942-10.296 160.271-30.828 249.943-60.436 23.209 42.532 42.465 89.344 57.108 139.167h-397.619v39.398h196.731v70.733h-239.964v43.361h239.964v102.072s2.171 15.99 19.825 15.99h98.365v-118.062h255.826v-43.361h-255.826v-70.733h208.686c-19.18-78.090-48.282-149.847-84.741-212.521 60.631-21.944 336.543-106.307 336.543-106.307zM283.679 104.223c-149.53 0-173.194 94.397-165.263 133.862 7.864 39.265 51.164 90.496 134.308 90.496 95.549 0 181.12-24.428 283.837-74.44-72.141-93.957-160.788-149.919-252.882-149.919z"  horiz-adv-x="1024" />

    
    <glyph glyph-name="updata" unicode="&#58943;" d="M36.257 896.151h949.058c14.563 0 24.272-9.709 24.272-24.272v-24.272c0-14.563-9.709-24.272-24.272-24.272h-949.058c-14.563 0-24.272 9.709-24.272 24.272v24.272c0 14.563 12.137 24.272 24.272 24.272zM492.581 721.389c14.563 0 29.127-4.854 38.836-14.563l359.234-342.243c16.991-16.991 24.272-41.264 14.563-65.536s-31.554-38.836-55.827-38.836h-148.063v-325.253c0-33.982-26.7-60.682-60.682-60.682h-266.998c-33.982 0-60.682 26.7-60.682 60.682v325.253h-162.626c-24.272 0-46.117 14.563-55.827 38.836s-2.427 48.545 14.563 65.536l339.817 339.817c12.137 12.137 26.7 16.991 43.691 16.991zM817.835 333.027l-327.68 310.689-310.689-310.689h145.635c33.982 0 60.682-26.7 60.682-60.682v-327.68h242.725v325.253c0 33.982 26.7 60.682 60.682 60.682l128.645 2.427z"  horiz-adv-x="1024" />

    
    <glyph glyph-name="internet" unicode="&#58918;" d="M808.07523 649.601062c20.844784 5.211196 41.23642 11.2154 61.288195 17.899325-28.321717 28.321717-81.793119 73.40989-117.478482 92.328798 13.254564-28.661578 46.107755-79.414094 56.190287-110.228123zM403.187963 187.05078c58.569311 10.648966 119.630933 16.313309 182.278571 16.313309 62.874212 0 124.162407-5.664343 182.845005-16.426596 13.141277 51.658812 21.184644 105.923222 23.337095 162.000221H379.850868c2.15245-55.963713 10.195818-110.228123 23.337095-161.886934zM585.466534 564.522624c-62.194491 0-122.802965 5.551057-180.919128 16.086735-13.481137-51.658812-21.864366-106.149795-24.469964-162.340081h411.457905c-2.605598 56.303573-10.988826 110.68127-24.469964 162.453368-58.456024-10.648966-119.177785-16.200022-181.598849-16.200022zM421.653723 637.02622c52.678394-9.516097 107.509238-14.500719 163.812811-14.500719 56.530147 0 111.474278 5.097909 164.265959 14.614006-16.766456 48.146919-38.064388 93.574953-63.32736 135.26452-32.286757 8.383228-66.046244 12.801416-100.938599 12.801416-34.665782 0-68.198695-4.418188-100.258878-12.688129-25.376258-41.802854-46.787476-87.230888-63.553933-135.491094zM910.939706 149.552827c41.23642 57.096581 67.745547 125.408563 74.202898 199.498174H849.65151c-2.15245-60.268614-10.422392-118.611351-24.016816-174.34849 29.228012-7.137073 57.663016-15.633588 85.305012-25.149684zM824.388539 592.844341c13.934285-55.737139 22.544087-114.193163 25.036397-174.68835h135.717668c-6.230778 74.429472-32.853192 142.968027-74.089611 200.177895-28.095143-9.742671-56.983295-18.239186-86.664454-25.489545zM361.72497 117.94579c-20.391636-5.211196-40.443412-10.988826-60.04204-17.559464 27.528709-27.528709 80.093816-72.163735 114.64631-90.742781-12.688129 28.095143-44.974887 78.281226-54.60427 108.302245zM809.661246 117.832504c-9.629384-29.907733-41.802854-79.867242-54.377697-107.735812 34.325921 18.579046 86.551167 62.987499 113.966589 90.402921-19.485341 6.344065-39.310543 12.234982-59.588892 17.332891zM751.545082 130.520633c-53.358115 9.742671-108.981967 14.953867-166.078548 14.953866-56.983295 0-112.380573-5.097909-165.625401-14.840579 16.200022-47.693771 36.818232-92.555371 61.288195-134.018365 33.306339-8.949663 68.198695-13.707711 104.337206-13.707711 36.251798 0 71.484014 4.871335 104.90364 13.820998 24.469963 41.349707 45.088173 86.211307 61.174908 133.791791zM259.880075 618.447173c-41.349707-57.209868-67.858834-125.86171-74.089611-200.177895h136.170815c2.492311 60.381901 11.102113 118.837925 25.036398 174.575063-29.794446 7.137073-58.909171 15.746875-87.117602 25.602832zM185.790464 349.051001c6.344065-74.089612 32.966479-142.51488 74.202898-199.498174 27.755283 9.629384 56.41686 18.125899 85.758159 25.376258-13.594424 55.623852-21.751079 113.966589-23.903529 174.121916H185.790464zM363.424273 649.487775c10.195818 30.927315 43.04901 81.906406 56.41686 110.68127-36.025224-18.918907-89.723199-64.233654-118.158203-92.668658 20.051776-6.683925 40.669986-12.688129 61.741343-18.012612zM585.693108 384.056643m-152.937272 0a152.937272 152.937272 0 1 1 305.874543 0 152.937272 152.937272 0 1 1-305.874543 0ZM587.05255 277.906848c-28.548291 0-51.205664 9.176236-68.085408 27.415422-16.879743 18.239186-25.262972 42.935723-25.262971 73.976325 0 35.345503 8.723089 62.987499 26.282553 82.925987 17.559465 20.051776 41.689567 30.02102 72.390309 30.02102 27.641996 0 49.166501-9.629384 64.686801-28.888151 15.520301-19.258768 23.223808-45.767895 23.223808-79.753955v-10.875539h-150.671534c0.906295-20.165063 5.890917-35.79865 14.727293-46.900764 9.969244-12.914703 24.809824-19.372054 44.408452-19.372054 14.274145 0 26.282553 3.398606 35.911937 10.309105s16.200022 16.65317 19.711915 29.341299h34.099348c-3.738467-21.751079-13.594424-38.630822-29.454586-50.525943-15.973448-11.668547-36.591658-17.672751-61.967917-17.672752z m57.209868 122.689678c-1.586016 19.032194-5.890917 33.193052-13.027989 42.709149-9.176236 12.348269-23.903529 18.579046-44.181879 18.579047-17.446178 0-31.493749-7.25036-42.029428-21.637792-7.59022-10.535679-12.688129-23.676955-15.18044-39.650404h114.419736z"  horiz-adv-x="1112" />

    
    <glyph glyph-name="supplier-manage" unicode="&#59673;" d="M1126.4 472.292c0-0.068 0-0.148 0-0.228 0-77.807-63.011-140.898-140.788-141.027-77.802 0.129-140.813 63.22-140.813 141.027 0 0.080 0 0.16 0 0.24 0-0.080 0-0.16 0-0.24 0-77.807-63.011-140.898-140.788-141.027-77.802 0.129-140.813 63.22-140.813 141.027 0 0.080 0 0.16 0 0.24 0-0.080 0-0.16 0-0.24 0-77.807-63.011-140.898-140.788-141.027-77.802 0.129-140.813 63.22-140.813 141.027 0 0.080 0 0.16 0 0.24 0-0.080 0-0.16 0-0.24 0-77.807-63.011-140.898-140.788-141.027-77.802 0.129-140.813 63.22-140.813 141.027 0 0.080 0 0.16 0 0.24l98.987 264.805h928.427l98.987-264.818zM950.386 790.073h-774.372c-29.171 0.065-52.793 23.727-52.793 52.907 0 0.020 0 0.040 0 0.060-0 0.014-0 0.034-0 0.054 0 29.18 23.622 52.842 52.787 52.907l774.378 0c29.171-0.065 52.793-23.727 52.793-52.907 0-0.020-0-0.040-0-0.060 0-0.014 0-0.034 0-0.054 0-29.18-23.622-52.842-52.787-52.907zM158.379 278.926c5.12 0.512 10.012 1.252 14.962 2.105l3.243 0.455c2.276 0.455 4.437 1.081 6.713 1.593 9.557 2.162 18.944 4.892 27.876 8.42v-260.551h704v260.551c8.988-3.527 18.375-6.258 27.876-8.42 2.276-0.512 4.494-1.138 6.827-1.593l3.186-0.455c9.859-1.834 21.202-2.882 32.791-2.882 12.365 0 24.451 1.194 36.15 3.473l-1.186-356.658c0-0.017 0-0.037 0-0.057 0-29.18-23.622-52.842-52.787-52.907l-809.649-0c-29.171 0.065-52.793 23.727-52.793 52.907 0 0.020 0 0.040 0 0.060l-0 356.463c10.669-2.085 22.938-3.278 35.485-3.278 6.094 0 12.121 0.281 18.071 0.832z"  horiz-adv-x="1137" />

    
    </font>
</defs>
</svg>
